<svg width="165" height="35" viewBox="0 0 165 35" fill="none" xmlns="http://www.w3.org/2000/svg">
<path d="M61.8833 25.4202H63.6982C64.5479 25.4202 65.1631 25.5476 65.5439 25.8025C65.9277 26.0574 66.1196 26.4602 66.1196 27.011C66.1196 27.3948 66.0127 27.7097 65.7988 27.9558C65.585 28.2019 65.2759 28.3616 64.8716 28.4348V28.4788C65.8472 28.6458 66.335 29.1584 66.335 30.0168C66.335 30.594 66.1387 31.0437 65.7461 31.366C65.3564 31.6853 64.8159 31.845 64.1245 31.845H61.8833V25.4202ZM62.6304 26.0662V28.1711H63.8608C64.3853 28.1711 64.7646 28.0891 64.999 27.925C65.2275 27.761 65.3418 27.49 65.3418 27.1121C65.3418 26.7341 65.2144 26.4661 64.9595 26.3079C64.7046 26.1467 64.2944 26.0662 63.729 26.0662H62.6304ZM62.6304 28.804V31.2078H63.9707C64.4951 31.2078 64.8862 31.1067 65.144 30.9045C65.4048 30.7024 65.5352 30.3962 65.5352 29.9861C65.5352 29.5759 65.4019 29.2771 65.1353 29.0896C64.8687 28.8992 64.46 28.804 63.9092 28.804H62.6304ZM67.3369 29.4324C67.3369 28.6472 67.5317 28.0364 67.9214 27.5999C68.314 27.1604 68.853 26.9407 69.5386 26.9407C70.2271 26.9407 70.7676 27.1648 71.1602 27.613C71.5615 28.0583 71.7622 28.6692 71.7622 29.4456C71.7622 30.2219 71.5645 30.8313 71.1689 31.2737C70.7734 31.7131 70.2271 31.9329 69.5298 31.9329C69.5181 31.9329 69.5063 31.9329 69.4946 31.9329C68.8589 31.9329 68.3403 31.7073 67.939 31.2561C67.5376 30.8049 67.3369 30.2175 67.3369 29.4939C67.3369 29.4734 67.3369 29.4529 67.3369 29.4324ZM69.5386 27.5647C68.5747 27.5647 68.0928 28.1873 68.0928 29.4324C68.0928 30.0476 68.2158 30.5164 68.4619 30.8386C68.7109 31.1609 69.0728 31.322 69.5474 31.322C70.0249 31.322 70.3867 31.1624 70.6328 30.843C70.8818 30.5208 71.0063 30.052 71.0063 29.4368C71.0063 28.8215 70.8818 28.3557 70.6328 28.0393C70.3867 27.7229 70.022 27.5647 69.5386 27.5647ZM72.7773 29.4324C72.7773 28.6472 72.9722 28.0364 73.3618 27.5999C73.7544 27.1604 74.2935 26.9407 74.979 26.9407C75.6675 26.9407 76.208 27.1648 76.6006 27.613C77.002 28.0583 77.2026 28.6692 77.2026 29.4456C77.2026 30.2219 77.0049 30.8313 76.6094 31.2737C76.2139 31.7131 75.6675 31.9329 74.9702 31.9329C74.9585 31.9329 74.9468 31.9329 74.9351 31.9329C74.2993 31.9329 73.7808 31.7073 73.3794 31.2561C72.978 30.8049 72.7773 30.2175 72.7773 29.4939C72.7773 29.4734 72.7773 29.4529 72.7773 29.4324ZM74.979 27.5647C74.0151 27.5647 73.5332 28.1873 73.5332 29.4324C73.5332 30.0476 73.6562 30.5164 73.9023 30.8386C74.1514 31.1609 74.5132 31.322 74.9878 31.322C75.4653 31.322 75.8271 31.1624 76.0732 30.843C76.3223 30.5208 76.4468 30.052 76.4468 29.4368C76.4468 28.8215 76.3223 28.3557 76.0732 28.0393C75.8271 27.7229 75.4624 27.5647 74.979 27.5647ZM79.2109 25.0071V28.6326C79.2109 28.7703 79.1992 29.0193 79.1758 29.3796H79.2109C79.3457 29.1921 79.5376 28.9578 79.7866 28.6765L81.3423 27.0286H82.208L80.2568 29.0808L82.3442 31.845H81.4609L79.7603 29.5686L79.2109 30.0432V31.845H78.4902V25.0071H79.2109ZM87.0332 31.2781C87.5254 31.2781 87.8989 31.1843 88.1538 30.9968C88.4087 30.8093 88.5361 30.5457 88.5361 30.2058C88.5361 29.9861 88.4907 29.8044 88.3999 29.6609C88.312 29.5173 88.1641 29.387 87.9561 29.2698C87.751 29.1497 87.4316 29.012 86.998 28.8567C86.3975 28.6399 85.9697 28.385 85.7148 28.092C85.46 27.7991 85.3325 27.4124 85.3325 26.9319C85.3325 26.4485 85.5186 26.0603 85.8906 25.7673C86.2627 25.4744 86.7607 25.3279 87.3848 25.3279C88.0088 25.3279 88.5889 25.4451 89.125 25.6794L88.8965 26.3298C88.3691 26.1072 87.8535 25.9958 87.3496 25.9958C86.9541 25.9958 86.645 26.0808 86.4224 26.2507C86.1997 26.4207 86.0884 26.6565 86.0884 26.9583C86.0884 27.178 86.1294 27.3596 86.2114 27.5032C86.2935 27.6467 86.4282 27.7771 86.6157 27.8943C86.8062 28.0085 87.1079 28.1404 87.521 28.2898C88.2007 28.5359 88.665 28.7966 88.9141 29.072C89.166 29.3474 89.292 29.7019 89.292 30.1355C89.292 30.6951 89.0869 31.136 88.6768 31.4583C88.2666 31.7747 87.6938 31.9329 86.9585 31.9329C86.2231 31.9329 85.6533 31.8347 85.249 31.6384V30.9177C85.8145 31.158 86.4092 31.2781 87.0332 31.2781ZM91.2783 27.0286H92.6758V27.5955H91.2783V30.4299C91.2783 30.717 91.3457 30.9397 91.4805 31.0979C91.6182 31.2532 91.8057 31.3308 92.043 31.3308C92.2803 31.3308 92.5029 31.3015 92.7109 31.2429V31.8054C92.6406 31.8406 92.5264 31.8699 92.3682 31.8933C92.21 31.9197 92.0693 31.9329 91.9463 31.9329C91.0146 31.9329 90.5488 31.4421 90.5488 30.4607V27.5955H89.8589V27.2439L90.5488 26.9407L90.8564 25.9124H91.2783V27.0286ZM93.4053 29.4324C93.4053 28.6472 93.6001 28.0364 93.9897 27.5999C94.3823 27.1604 94.9214 26.9407 95.6069 26.9407C96.2954 26.9407 96.8359 27.1648 97.2285 27.613C97.6299 28.0583 97.8306 28.6692 97.8306 29.4456C97.8306 30.2219 97.6328 30.8313 97.2373 31.2737C96.8418 31.7131 96.2954 31.9329 95.5981 31.9329C95.5864 31.9329 95.5747 31.9329 95.563 31.9329C94.9272 31.9329 94.4087 31.7073 94.0073 31.2561C93.606 30.8049 93.4053 30.2175 93.4053 29.4939C93.4053 29.4734 93.4053 29.4529 93.4053 29.4324ZM95.6069 27.5647C94.6431 27.5647 94.1611 28.1873 94.1611 29.4324C94.1611 30.0476 94.2842 30.5164 94.5303 30.8386C94.7793 31.1609 95.1411 31.322 95.6157 31.322C96.0933 31.322 96.4551 31.1624 96.7012 30.843C96.9502 30.5208 97.0747 30.052 97.0747 29.4368C97.0747 28.8215 96.9502 28.3557 96.7012 28.0393C96.4551 27.7229 96.0903 27.5647 95.6069 27.5647ZM101.315 26.9407C101.526 26.9407 101.718 26.9583 101.891 26.9934L101.79 27.6702C101.591 27.6262 101.415 27.6042 101.263 27.6042C100.87 27.6042 100.536 27.7625 100.261 28.0789C99.9854 28.3923 99.8477 28.7864 99.8477 29.261V31.845H99.1182V27.0286H99.7202L99.8037 27.9207H99.8389C100.018 27.6042 100.233 27.3625 100.485 27.1956C100.74 27.0256 101.017 26.9407 101.315 26.9407ZM104.827 31.9329C104.115 31.9329 103.552 31.7161 103.139 31.2825C102.729 30.8459 102.524 30.241 102.524 29.4675C102.524 28.6941 102.714 28.0803 103.095 27.6262C103.479 27.1692 103.983 26.9407 104.607 26.9407C105.234 26.9407 105.722 27.1414 106.07 27.5427C106.422 27.9324 106.598 28.4539 106.598 29.1072V29.5686H103.28C103.294 30.1311 103.437 30.5603 103.706 30.8562C103.976 31.1492 104.364 31.2957 104.871 31.2957C105.377 31.2957 105.883 31.1873 106.387 30.9705V31.6208C106.132 31.7322 105.887 31.8113 105.653 31.8582C105.421 31.908 105.146 31.9329 104.827 31.9329ZM105.815 28.9753C105.815 28.5183 105.713 28.1682 105.508 27.925C105.303 27.679 105.008 27.5559 104.625 27.5559C104.244 27.5559 103.938 27.6804 103.706 27.9294C103.475 28.1785 103.338 28.5271 103.297 28.9753H105.815ZM115.901 31.845H115.163L113.866 27.5471C113.796 27.3391 113.726 27.0945 113.655 26.8132C113.585 26.5291 113.547 26.3577 113.541 26.2991C113.474 26.6917 113.371 27.1165 113.233 27.5735L111.977 31.845H111.238L109.529 25.4202H110.32L111.335 29.3884C111.473 29.9363 111.575 30.4402 111.643 30.9001C111.719 30.3757 111.836 29.8513 111.994 29.3269L113.146 25.4202H113.937L115.145 29.3621C115.286 29.8132 115.404 30.3259 115.501 30.9001C115.557 30.4871 115.662 29.9802 115.817 29.3796L116.828 25.4202H117.619L115.901 31.845ZM120.55 31.9329C119.838 31.9329 119.276 31.7161 118.863 31.2825C118.453 30.8459 118.248 30.241 118.248 29.4675C118.248 28.6941 118.438 28.0803 118.819 27.6262C119.203 27.1692 119.707 26.9407 120.331 26.9407C120.958 26.9407 121.445 27.1414 121.794 27.5427C122.146 27.9324 122.321 28.4539 122.321 29.1072V29.5686H119.003C119.018 30.1311 119.16 30.5603 119.43 30.8562C119.699 31.1492 120.087 31.2957 120.594 31.2957C121.101 31.2957 121.606 31.1873 122.11 30.9705V31.6208C121.855 31.7322 121.611 31.8113 121.376 31.8582C121.145 31.908 120.87 31.9329 120.55 31.9329ZM121.539 28.9753C121.539 28.5183 121.437 28.1682 121.231 27.925C121.026 27.679 120.732 27.5559 120.348 27.5559C119.967 27.5559 119.661 27.6804 119.43 27.9294C119.198 28.1785 119.062 28.5271 119.021 28.9753H121.539ZM124.299 25.0071V26.6682C124.299 27.0227 124.287 27.3567 124.264 27.6702H124.299C124.639 27.1897 125.134 26.9495 125.784 26.9495C126.438 26.9495 126.937 27.1663 127.283 27.5999C127.634 28.0305 127.81 28.6428 127.81 29.4368C127.81 30.2278 127.633 30.8416 127.278 31.2781C126.927 31.7146 126.429 31.9329 125.784 31.9329C125.14 31.9329 124.645 31.697 124.299 31.2253H124.246L124.092 31.845H123.569V25.0071H124.299ZM127.05 29.4192C127.05 28.7952 126.94 28.3308 126.72 28.0261C126.5 27.7185 126.152 27.5647 125.674 27.5647C125.197 27.5647 124.848 27.7068 124.628 27.991C124.409 28.2751 124.299 28.7556 124.299 29.4324C124.299 30.1062 124.412 30.5911 124.637 30.887C124.863 31.177 125.225 31.322 125.723 31.322C126.165 31.322 126.496 31.1609 126.716 30.8386C126.938 30.5164 127.05 30.0432 127.05 29.4192ZM130.306 31.3308C131.097 31.3308 131.493 31.0847 131.493 30.5925C131.493 30.405 131.411 30.2454 131.247 30.1135C131.085 29.9788 130.769 29.8206 130.297 29.6389C129.846 29.4719 129.525 29.3254 129.335 29.1995C129.147 29.0735 129.008 28.9329 128.917 28.7776C128.827 28.6223 128.781 28.4333 128.781 28.2107C128.781 27.821 128.941 27.512 129.26 27.2834C129.58 27.0549 130.007 26.9407 130.543 26.9407C131.08 26.9407 131.597 27.0461 132.095 27.2571L131.835 27.8503C131.355 27.6541 130.93 27.5559 130.561 27.5559C130.195 27.5559 129.922 27.6086 129.744 27.7141C129.565 27.8196 129.476 27.969 129.476 28.1624C129.476 28.2913 129.508 28.4011 129.572 28.4919C129.637 28.5828 129.742 28.6692 129.889 28.7512C130.035 28.8333 130.318 28.9519 130.737 29.1072C131.308 29.3152 131.693 29.5247 131.893 29.7356C132.095 29.9465 132.196 30.2117 132.196 30.531C132.196 30.9792 132.027 31.325 131.69 31.5681C131.356 31.8113 130.879 31.9329 130.258 31.9329C129.64 31.9329 129.152 31.8318 128.794 31.6296V30.9529C129.292 31.2048 129.796 31.3308 130.306 31.3308ZM133.316 25.7234C133.316 25.5623 133.356 25.4421 133.435 25.363C133.514 25.281 133.617 25.24 133.743 25.24C133.869 25.24 133.973 25.281 134.055 25.363C134.137 25.4451 134.178 25.5652 134.178 25.7234C134.178 25.8816 134.137 26.0032 134.055 26.0881C133.973 26.1702 133.869 26.2112 133.743 26.2112C133.617 26.2112 133.514 26.1702 133.435 26.0881C133.356 26.0032 133.316 25.8816 133.316 25.7234ZM134.107 31.845H133.378V27.0286H134.107V31.845ZM136.437 27.0286H137.834V27.5955H136.437V30.4299C136.437 30.717 136.504 30.9397 136.639 31.0979C136.776 31.2532 136.964 31.3308 137.201 31.3308C137.438 31.3308 137.661 31.3015 137.869 31.2429V31.8054C137.799 31.8406 137.685 31.8699 137.526 31.8933C137.368 31.9197 137.228 31.9329 137.104 31.9329C136.173 31.9329 135.707 31.4421 135.707 30.4607V27.5955H135.017V27.2439L135.707 26.9407L136.015 25.9124H136.437V27.0286ZM140.871 31.9329C140.159 31.9329 139.596 31.7161 139.183 31.2825C138.773 30.8459 138.568 30.241 138.568 29.4675C138.568 28.6941 138.758 28.0803 139.139 27.6262C139.523 27.1692 140.027 26.9407 140.651 26.9407C141.278 26.9407 141.766 27.1414 142.114 27.5427C142.466 27.9324 142.642 28.4539 142.642 29.1072V29.5686H139.324C139.338 30.1311 139.48 30.5603 139.75 30.8562C140.02 31.1492 140.408 31.2957 140.915 31.2957C141.421 31.2957 141.927 31.1873 142.431 30.9705V31.6208C142.176 31.7322 141.931 31.8113 141.697 31.8582C141.465 31.908 141.19 31.9329 140.871 31.9329ZM141.859 28.9753C141.859 28.5183 141.757 28.1682 141.552 27.925C141.347 27.679 141.052 27.5559 140.668 27.5559C140.288 27.5559 139.981 27.6804 139.75 27.9294C139.519 28.1785 139.382 28.5271 139.341 28.9753H141.859Z" fill="#131045"/>
<path d="M70.7649 11.4405C70.7649 12.528 70.0472 13.0935 68.8074 13.0935H66.0669V9.72225H68.7639C70.0037 9.72225 70.7649 10.353 70.7649 11.4405ZM70.3952 5.41575C70.3952 6.45975 69.7209 7.0035 68.5029 7.0035H66.0669V3.80625H68.5029C69.7209 3.80625 70.3952 4.37175 70.3952 5.41575ZM74.5277 11.9408C74.5277 10.2007 73.3749 8.63475 71.5914 8.265C73.0704 7.83 74.1797 6.63375 74.1797 4.785C74.1797 2.37075 72.3309 0.8265 69.2207 0.8265H62.3477V16.095H69.4599C72.6789 16.095 74.5277 14.4637 74.5277 11.9408Z" fill="#862B1A"/>
<path d="M88.5603 10.0267C88.5603 6.177 85.8198 3.7845 82.2528 3.7845C78.7076 3.7845 75.9453 6.177 75.9453 10.0267C75.9453 13.8765 78.6423 16.269 82.2093 16.269C85.7763 16.269 88.5603 13.8765 88.5603 10.0267ZM79.7298 10.0267C79.7298 7.9605 80.9043 7.0035 82.2528 7.0035C83.5578 7.0035 84.7758 7.9605 84.7758 10.0267C84.7758 12.0712 83.5361 13.05 82.2093 13.05C80.8608 13.05 79.7298 12.0712 79.7298 10.0267Z" fill="#862B1A"/>
<path d="M102.409 10.0267C102.409 6.177 99.6684 3.7845 96.1014 3.7845C92.5562 3.7845 89.7939 6.177 89.7939 10.0267C89.7939 13.8765 92.4909 16.269 96.0579 16.269C99.6249 16.269 102.409 13.8765 102.409 10.0267ZM93.5784 10.0267C93.5784 7.9605 94.7529 7.0035 96.1014 7.0035C97.4064 7.0035 98.6245 7.9605 98.6245 10.0267C98.6245 12.0712 97.3847 13.05 96.0579 13.05C94.7094 13.05 93.5784 12.0712 93.5784 10.0267Z" fill="#862B1A"/>
<path d="M104.382 16.095H108.101V11.0055L111.799 16.095H116.41L111.32 10.0485L116.366 3.9585H111.777L108.101 8.89575V0H104.382V16.095Z" fill="#862B1A"/>
<path d="M118.131 16.095H120.61V0H118.131V16.095Z" fill="#EAA451"/>
<path d="M123.039 10.0485C123.039 13.746 125.54 16.2908 128.651 16.2908C130.652 16.2908 132.087 15.3338 132.848 14.3115V16.095H135.35V4.11075H132.848V5.85075C132.109 4.872 130.717 3.915 128.694 3.915C125.54 3.915 123.039 6.351 123.039 10.0485ZM132.848 10.092C132.848 12.6803 131.087 14.1375 129.216 14.1375C127.367 14.1375 125.584 12.6368 125.584 10.0485C125.584 7.46025 127.367 6.06825 129.216 6.06825C131.087 6.06825 132.848 7.5255 132.848 10.092Z" fill="#EAA451"/>
<path d="M147.111 16.095H149.568V9.02625C149.568 5.67675 147.459 3.915 144.653 3.915C143.217 3.915 141.891 4.50225 141.086 5.481V4.11075H138.606V16.095H141.086V9.396C141.086 7.19925 142.282 6.06825 144.109 6.06825C145.914 6.06825 147.111 7.19925 147.111 9.396V16.095Z" fill="#EAA451"/>
<path d="M151.905 10.0485C151.905 13.746 154.406 16.2908 157.56 16.2908C159.517 16.2908 160.953 15.3772 161.714 14.2897V16.095H164.215V0H161.714V5.7855C160.8 4.6545 159.147 3.915 157.581 3.915C154.406 3.915 151.905 6.351 151.905 10.0485ZM161.714 10.092C161.714 12.6803 159.952 14.1375 158.082 14.1375C156.233 14.1375 154.449 12.6368 154.449 10.0485C154.449 7.46025 156.233 6.06825 158.082 6.06825C159.952 6.06825 161.714 7.5255 161.714 10.092Z" fill="#EAA451"/>
<path d="M3.25 25.845V6.34497C2.45435 6.34497 1.69129 6.66104 1.12868 7.22365C0.566071 7.78626 0.25 8.54932 0.25 9.34497V30.345C0.25 31.1406 0.566071 31.9037 1.12868 32.4663C1.69129 33.0289 2.45435 33.345 3.25 33.345H17.32C14.5103 31.393 11.1712 30.3463 7.75 30.345C6.55653 30.345 5.41194 29.8709 4.56802 29.027C3.72411 28.183 3.25 27.0384 3.25 25.845Z" fill="#EAA451"/>
<path d="M42.25 6.34497V25.845C42.25 27.0384 41.7759 28.183 40.932 29.027C40.0881 29.8709 38.9435 30.345 37.75 30.345C34.3288 30.3463 30.9897 31.393 28.18 33.345H42.25C43.0456 33.345 43.8087 33.0289 44.3713 32.4663C44.9339 31.9037 45.25 31.1406 45.25 30.345V9.34497C45.25 8.54932 44.9339 7.78626 44.3713 7.22365C43.8087 6.66104 43.0456 6.34497 42.25 6.34497Z" fill="#EAA451"/>
<path d="M7.75 0.344971C7.35218 0.344971 6.97065 0.503006 6.68934 0.784311C6.40804 1.06562 6.25 1.44715 6.25 1.84497V25.845C6.25 26.2428 6.40804 26.6243 6.68934 26.9056C6.97065 27.1869 7.35218 27.345 7.75 27.345C12.2626 27.3497 16.6406 28.883 20.17 31.695L21.25 32.565V0.61497C20.769 0.440337 20.2617 0.349028 19.75 0.344971H7.75Z" fill="#EAA451"/>
<path d="M39.25 25.845V1.84497C39.25 1.44715 39.092 1.06562 38.8107 0.784311C38.5294 0.503006 38.1478 0.344971 37.75 0.344971H25.75C25.2383 0.349028 24.731 0.440337 24.25 0.61497V32.565L25.33 31.695C28.8594 28.883 33.2374 27.3497 37.75 27.345C38.1478 27.345 38.5294 27.1869 38.8107 26.9056C39.092 26.6243 39.25 26.2428 39.25 25.845Z" fill="#EAA451"/>
</svg>
