<svg width="130" height="42" viewBox="0 0 130 42" fill="none" xmlns="http://www.w3.org/2000/svg">
<g clip-path="url(#clip0_48_2356)">
<path d="M26.7435 23.2326C26.7435 25.8597 26.7902 27.5468 26.8836 28.2941H22.3125V9.9921H26.7435V11.5683C28.3431 10.284 29.9836 9.64182 31.6649 9.64182C33.6498 9.64182 35.0918 10.5 35.9908 12.2164C36.8899 11.294 37.6371 10.6868 38.2326 10.3949C39.225 9.89286 40.2175 9.64182 41.21 9.64182C42.2141 9.64182 43.0664 9.81112 43.767 10.1497C44.4675 10.4883 45.0455 10.967 45.5008 11.5859C46.4232 12.8352 46.8844 14.5515 46.8844 16.7349V23.7055C46.8844 25.6787 46.9136 26.8638 46.972 27.2608C47.0304 27.6577 47.1063 27.9146 47.1997 28.0314C47.3048 28.1481 47.3923 28.2532 47.4624 28.3466L47.4274 28.4167C46.4933 28.3349 45.8044 28.2941 45.3607 28.2941H44.0472C43.6152 28.2941 43.0839 28.3116 42.4534 28.3466V18.8716C42.4534 16.1395 42.0331 14.5165 41.1924 14.0028C40.9122 13.8393 40.5795 13.7576 40.1941 13.7576C39.8205 13.7576 39.4878 13.8043 39.1959 13.8977C38.904 13.9794 38.6296 14.1195 38.3727 14.318C37.9407 14.6333 37.4503 15.2521 36.9015 16.1745C36.9132 16.2679 36.9191 16.3613 36.9191 16.4547C36.9191 16.5481 36.9191 18.0893 36.9191 21.0784C36.9191 24.0674 36.9891 26.4726 37.1292 28.2941C36.1368 28.2941 35.2903 28.2941 34.5897 28.2941C33.9008 28.2941 33.2411 28.3116 32.6106 28.3466V18.8541C32.6106 16.9509 32.4939 15.7133 32.2604 15.1412C32.0385 14.5691 31.7992 14.1954 31.5423 14.0203C31.2854 13.8451 30.9702 13.7576 30.5966 13.7576C29.0553 13.7576 27.771 14.499 26.7435 15.9818V23.2326Z" fill="#CACACA"/>
<path d="M64.048 27.2082C62.39 28.1073 60.8897 28.5568 59.547 28.5568C58.2042 28.5568 57.0542 28.4342 56.0967 28.189C55.1393 27.9321 54.3278 27.5585 53.6623 27.0681C52.3079 26.0757 51.6307 24.6395 51.6307 22.7597C51.6307 21.0784 52.4597 19.6773 54.1177 18.5564C55.9158 17.3421 58.356 16.7349 61.4385 16.7349L62.139 16.7524C62.2791 16.7641 62.4367 16.7758 62.6119 16.7875C62.787 16.7875 62.9446 16.7992 63.0848 16.8225C62.9914 14.9544 62.1857 13.8627 60.6678 13.5474C60.1658 13.4423 59.6287 13.3898 59.0566 13.3898C58.4961 13.3898 57.9415 13.4423 57.3928 13.5474C56.8557 13.6408 56.3302 13.7693 55.8165 13.9327C54.6839 14.2947 53.8725 14.7092 53.3821 15.1762L53.3295 15.1412L52.8041 11.2706C54.8708 10.1848 57.13 9.64182 59.582 9.64182C63.3883 9.64182 65.8228 11.0137 66.8853 13.7576C67.2239 14.6333 67.3932 15.6199 67.3932 16.7174V23.0574C67.3932 24.4118 67.8719 25.3342 68.8293 25.8246L65.6593 28.7319C64.9938 28.3817 64.4567 27.8738 64.048 27.2082ZM63.1023 19.975C62.787 19.9166 62.4601 19.8874 62.1215 19.8874H61.4209C58.8406 19.8874 57.2001 20.4596 56.4995 21.6038C56.2894 21.9424 56.1843 22.2985 56.1843 22.6721C56.1843 23.0458 56.2485 23.3785 56.377 23.6704C56.5171 23.9506 56.7447 24.1842 57.06 24.371C57.6671 24.7213 58.5662 24.8964 59.7571 24.8964C60.9597 24.8964 62.0806 24.6103 63.1198 24.0382C63.1081 23.9098 63.1023 23.7755 63.1023 23.6354V19.975Z" fill="#CACACA"/>
<path d="M71.9643 4.89557C72.7232 3.68127 73.5931 2.53703 74.5738 1.46285L77.919 4.10744C77.3352 4.8547 76.9382 5.36844 76.7281 5.64866L76.1151 6.50684C75.9166 6.77539 75.7064 7.07896 75.4846 7.41756L71.9643 4.89557ZM70.0202 31.0087C71.7483 31.0087 72.6123 29.7244 72.6123 27.1557V9.9921H76.8682V25.8947C76.8682 30.7986 75.4729 33.7 72.6824 34.5991C71.7716 34.891 70.7383 35.0369 69.5824 35.0369L67.761 30.4308L67.796 30.3432C68.4615 30.7869 69.2029 31.0087 70.0202 31.0087Z" fill="#CACACA"/>
<path d="M81.3167 4.77297C82.2508 3.31348 83.2257 2.02913 84.2415 0.919922L88.007 3.87976C87.5049 4.49859 87.0379 5.10573 86.6059 5.70121C86.6059 5.70121 86.1563 6.33754 85.2573 7.61022L81.3167 4.77297ZM85.9228 26.3325C85.9228 27.3367 85.9462 27.9905 85.9929 28.2941H81.5444V9.9921H85.9228V26.3325Z" fill="#CACACA"/>
<path d="M95.4854 26.0523C95.4854 27.0798 95.5321 27.827 95.6255 28.2941H91.2295V9.9921H95.4854V11.5508C97.0266 10.2782 98.6729 9.64182 100.424 9.64182C102.339 9.64182 103.869 10.2957 105.013 11.6034C106.157 12.8994 106.729 14.6099 106.729 16.7349V23.7055C106.729 25.6787 106.758 26.8638 106.817 27.2608C106.875 27.6577 106.951 27.9146 107.045 28.0314C107.15 28.1481 107.237 28.2532 107.307 28.3466L107.272 28.4167C106.326 28.3349 105.638 28.2941 105.206 28.2941H103.98C103.606 28.2941 103.104 28.3116 102.473 28.3466V18.8016C102.473 15.3805 101.434 13.67 99.356 13.67C97.8147 13.67 96.5246 14.464 95.4854 16.0519V26.0523Z" fill="#CACACA"/>
<path d="M110.985 19.292C110.985 17.9259 111.219 16.659 111.686 15.4915C112.153 14.3239 112.812 13.3022 113.665 12.4265C115.486 10.5701 117.868 9.64182 120.81 9.64182C123.297 9.64182 125.294 10.465 126.8 12.1113C128.283 13.6992 129.024 15.6958 129.024 18.101C129.024 19.0234 128.954 19.6539 128.814 19.9925C127.647 20.3194 125.271 20.4829 121.686 20.4829H115.521C115.825 21.7322 116.531 22.7072 117.64 23.4077C118.75 24.0966 120.192 24.441 121.966 24.441C123.823 24.441 125.417 24.1083 126.748 23.4427C127.098 23.2676 127.361 23.1041 127.536 22.9524C127.512 23.4427 127.483 23.9448 127.448 24.4585L127.256 27.1907C126.368 27.7979 124.932 28.2182 122.947 28.4517C122.363 28.5218 121.803 28.5568 121.266 28.5568C118.3 28.5568 115.848 27.6928 113.91 25.9647C111.96 24.225 110.985 22.0008 110.985 19.292ZM124.366 17.0852C123.887 14.5749 122.521 13.3197 120.268 13.3197C118.493 13.3197 117.144 14.0845 116.222 15.614C115.942 16.0811 115.726 16.5948 115.574 17.1553C115.854 17.1669 116.198 17.1786 116.607 17.1903H117.903C118.335 17.202 118.75 17.2078 119.147 17.2078H120.145C120.74 17.2078 121.324 17.202 121.896 17.1903L123.332 17.1378C123.718 17.1261 124.062 17.1086 124.366 17.0852Z" fill="#CACACA"/>
<path d="M4.78092 10.4492C6.4389 9.55018 7.93925 9.10066 9.28198 9.10066C10.6247 9.10066 11.7748 9.22326 12.7322 9.46845C13.6896 9.72532 14.5011 10.099 15.1666 10.5893C16.521 11.5818 17.1982 13.0179 17.1982 14.8977C17.1982 16.5791 16.3693 17.9802 14.7113 19.1011C12.9132 20.3154 10.4729 20.9225 7.39048 20.9225L6.68993 20.905C6.54982 20.8933 6.39219 20.8816 6.21705 20.87C6.04191 20.87 5.88429 20.8583 5.74418 20.8349C5.83759 22.7031 6.64322 23.7948 8.16109 24.11C8.66316 24.2151 9.20025 24.2677 9.77237 24.2677C10.3328 24.2677 10.8874 24.2151 11.4362 24.11C11.9733 24.0166 12.4987 23.8882 13.0124 23.7247C14.145 23.3628 14.9565 22.9483 15.4469 22.4812L15.4994 22.5163L16.0248 26.3868C13.9582 27.4727 11.6989 28.0156 9.24695 28.0156C5.44061 28.0156 3.00618 26.6437 1.94367 23.8999C1.60507 23.0242 1.43577 22.0376 1.43577 20.94V14.6C1.43577 13.2456 0.957058 12.3232 -0.000366211 11.8328L3.16964 8.92552C3.83517 9.2758 4.37226 9.7837 4.78092 10.4492ZM5.72667 17.6825C6.04191 17.7408 6.36884 17.77 6.70744 17.77H7.408C9.98837 17.77 11.6288 17.1979 12.3294 16.0537C12.5396 15.7151 12.6446 15.3589 12.6446 14.9853C12.6446 14.6117 12.5804 14.2789 12.452 13.987C12.3119 13.7068 12.0842 13.4733 11.7689 13.2865C11.1618 12.9362 10.2628 12.7611 9.07181 12.7611C7.86919 12.7611 6.74831 13.0471 5.70915 13.6192C5.72083 13.7477 5.72667 13.8819 5.72667 14.0221V17.6825Z" fill="#CACACA"/>
<path d="M5.37095 38.1376C4.59276 37.3594 4.59276 36.0977 5.37095 35.3195L7.07181 33.6186C7.85 32.8404 9.11169 32.8404 9.88988 33.6186L11.5907 35.3195C12.3689 36.0977 12.3689 37.3594 11.5907 38.1376L9.88988 39.8384C9.11169 40.6166 7.85 40.6166 7.07181 39.8384L5.37095 38.1376Z" fill="#CACACA"/>
</g>
<defs>
<clipPath id="clip0_48_2356">
<rect width="129.025" height="40.3271" fill="white" transform="translate(0 0.919922)"/>
</clipPath>
</defs>
</svg>
