<svg width="127" height="25" viewBox="0 0 127 25" fill="none" xmlns="http://www.w3.org/2000/svg">
<g clip-path="url(#clip0_48_2365)">
<path d="M42.417 12.4112H49.5383L47.4892 22.0497C46.3592 22.4376 45.3094 22.699 44.3396 22.8339C43.3783 22.9772 42.358 23.0489 41.2786 23.0489C39.0946 23.0489 37.408 22.4291 36.219 21.1895C35.03 19.9499 34.4355 18.1707 34.4355 15.8517C34.4355 13.5918 34.8867 11.5511 35.789 9.72963C36.6913 7.89976 37.9604 6.49151 39.5963 5.5049C41.2322 4.50985 43.1211 4.01233 45.263 4.01233C47.1013 4.01233 48.83 4.42974 50.4491 5.26457L48.9944 8.43944C48.3704 8.10214 47.7464 7.8323 47.1224 7.62991C46.4984 7.42753 45.8196 7.32634 45.0859 7.32634C43.7957 7.32634 42.6405 7.67629 41.6201 8.3762C40.6082 9.0761 39.8113 10.0754 39.2295 11.374C38.6561 12.6642 38.3694 14.0556 38.3694 15.5481C38.3694 16.9985 38.6729 18.0653 39.2801 18.7483C39.8957 19.4229 40.8359 19.7602 42.1008 19.7602C42.7417 19.7602 43.4584 19.659 44.2511 19.4566L45.0859 15.6746H41.7087L42.417 12.4112Z" fill="#CACACA"/>
<path d="M55.0406 22.7959H51.2333L55.4074 3.11426H59.2147L55.0406 22.7959Z" fill="#CACACA"/>
<path d="M68.6382 13.9923C68.6382 12.3311 68.0352 11.5005 66.8294 11.5005C66.1969 11.5005 65.6277 11.7577 65.1218 12.2721C64.6242 12.7864 64.2153 13.5412 63.8948 14.5362C63.5828 15.5313 63.4268 16.5558 63.4268 17.6099C63.4268 19.1699 64.0593 19.9499 65.3242 19.9499C65.9566 19.9499 66.5258 19.6927 67.0318 19.1784C67.5377 18.6555 67.9298 17.9345 68.2081 17.0154C68.4948 16.0878 68.6382 15.0801 68.6382 13.9923ZM72.4708 13.9923C72.4708 15.7716 72.1714 17.3485 71.5727 18.723C70.9824 20.0975 70.1265 21.1642 69.005 21.9232C67.8834 22.6737 66.5511 23.0489 65.0079 23.0489C63.3636 23.0489 62.0481 22.5556 61.0615 21.569C60.0833 20.574 59.5942 19.2543 59.5942 17.6099C59.5942 15.8138 59.8936 14.2158 60.4923 12.816C61.0994 11.4077 61.9722 10.3199 63.1106 9.55255C64.249 8.77675 65.5813 8.38885 67.1076 8.38885C68.7604 8.38885 70.0675 8.88637 71.0288 9.88142C71.9901 10.8765 72.4708 12.2468 72.4708 13.9923Z" fill="#CACACA"/>
<path d="M84.4366 11.9179C83.9138 13.4189 83.3952 14.7639 82.8808 15.9529L79.9336 22.7959H75.8354L75.1903 8.65447H78.7446L78.7952 14.9157L78.7446 17.028L78.6561 19.191H78.7067C78.7573 19.0224 78.8163 18.8495 78.8838 18.6724C78.9512 18.4869 79.1663 17.9093 79.5289 16.9395C79.8915 15.9698 80.0854 15.468 80.1107 15.4343L83.0326 8.65447H87.1814V15.4343C87.1814 16.6317 87.1393 17.884 87.055 19.191H87.1309L87.485 18.1791C88.1006 16.4251 88.5012 15.3373 88.6867 14.9157L91.4568 8.65447H95.34L88.6361 22.7959H84.4619L84.386 16.2185C84.386 14.9115 84.4282 13.4779 84.5125 11.9179H84.4366Z" fill="#CACACA"/>
<path d="M112.163 4.30325L109.621 16.2691C109.14 18.5122 108.221 20.2029 106.863 21.3413C105.505 22.4797 103.739 23.0489 101.563 23.0489C99.7755 23.0489 98.3673 22.5725 97.3385 21.6196C96.3182 20.6583 95.808 19.3597 95.808 17.7237C95.808 17.1166 95.8712 16.5347 95.9977 15.9782L98.4769 4.30325H102.335L99.8809 15.9276C99.7376 16.5516 99.6659 17.0786 99.6659 17.5087C99.6659 19.0097 100.463 19.7602 102.057 19.7602C103.094 19.7602 103.916 19.4398 104.523 18.7989C105.13 18.1496 105.569 17.184 105.839 15.9023L108.292 4.30325H112.163Z" fill="#CACACA"/>
<path d="M118.538 13.0057H119.246C120.444 13.0057 121.384 12.7148 122.067 12.1329C122.759 11.5511 123.104 10.7711 123.104 9.79288C123.104 8.27501 122.282 7.51607 120.638 7.51607H119.702L118.538 13.0057ZM126.988 9.69168C126.988 11.7239 126.271 13.3219 124.837 14.4856C123.412 15.6409 121.443 16.2185 118.93 16.2185H117.842L116.464 22.7959H112.606L116.514 4.30325H120.79C122.83 4.30325 124.373 4.7544 125.419 5.65669C126.465 6.55054 126.988 7.89554 126.988 9.69168Z" fill="#CACACA"/>
<path d="M20.2763 7.78313H12.3716L15.2896 1.721C15.5636 1.0111 14.7759 0.310547 13.7004 0.310547H3.83665C3.01466 0.310547 2.31598 0.726209 2.20638 1.28198L0.0144243 12.4908C-0.115723 13.1634 0.651461 13.7612 1.64469 13.7612H9.77547L6.61769 22.845C6.37109 23.5549 7.16568 24.2228 8.21371 24.2228C8.78909 24.2228 9.33708 24.0173 9.63848 23.6624L21.6942 9.46446C22.3313 8.72187 21.5435 7.78313 20.2763 7.78313Z" fill="#CACACA"/>
</g>
<defs>
<clipPath id="clip0_48_2365">
<rect width="126.988" height="23.9123" fill="white" transform="translate(0 0.310547)"/>
</clipPath>
</defs>
</svg>
