<svg width="145" height="30" viewBox="0 0 145 30" fill="none" xmlns="http://www.w3.org/2000/svg">
<g clip-path="url(#clip0_48_2351)">
<path d="M56.3379 22.9161H52.4294V14.9346H45.1057V22.9161H41.1846V4.42337H45.1057V11.6712H52.4294V4.42337H56.3379V22.9161Z" fill="#CACACA"/>
<path d="M60.55 5.11906C60.55 3.8626 61.2499 3.23438 62.6497 3.23438C64.0496 3.23438 64.7495 3.8626 64.7495 5.11906C64.7495 5.71778 64.5724 6.18578 64.2182 6.52309C63.8725 6.85196 63.3497 7.0164 62.6497 7.0164C61.2499 7.0164 60.55 6.38395 60.55 5.11906ZM64.5724 22.9161H60.7145V8.77459H64.5724V22.9161Z" fill="#CACACA"/>
<path d="M80.9401 8.77459V10.7352L78.7265 11.3044C79.1313 11.9368 79.3336 12.6452 79.3336 13.4294C79.3336 14.9473 78.8024 16.132 77.7399 16.9837C76.6858 17.827 75.2185 18.2486 73.3381 18.2486L72.6424 18.2107L72.0732 18.1474C71.6768 18.451 71.4787 18.7883 71.4787 19.1593C71.4787 19.7159 72.187 19.9942 73.6037 19.9942H76.007C77.5586 19.9942 78.7391 20.3273 79.5487 20.9934C80.3666 21.6596 80.7756 22.6378 80.7756 23.928C80.7756 25.5808 80.0841 26.8625 78.7012 27.7732C77.3267 28.684 75.3492 29.1393 72.7689 29.1393C70.7956 29.1393 69.2862 28.7936 68.2406 28.1021C67.2034 27.4191 66.6847 26.4578 66.6847 25.2182C66.6847 24.3665 66.9504 23.6539 67.4816 23.0805C68.0129 22.5071 68.7929 22.0981 69.8217 21.8536C69.4253 21.6849 69.0796 21.4108 68.7845 21.0314C68.4893 20.6435 68.3418 20.2345 68.3418 19.8044C68.3418 19.2647 68.4978 18.8178 68.8098 18.4636C69.1218 18.101 69.5729 17.7469 70.1632 17.4011C69.4211 17.0807 68.8308 16.5663 68.3923 15.858C67.9623 15.1496 67.7473 14.3148 67.7473 13.3535C67.7473 11.8103 68.249 10.6171 69.2525 9.77385C70.256 8.93059 71.6895 8.50897 73.5531 8.50897C73.9494 8.50897 74.4174 8.54691 74.9571 8.62281C75.5052 8.69027 75.8552 8.74086 76.007 8.77459H80.9401ZM70.0241 24.9146C70.0241 25.4458 70.277 25.8633 70.783 26.1668C71.2974 26.4704 72.0141 26.6222 72.9333 26.6222C74.3162 26.6222 75.3998 26.4325 76.1841 26.053C76.9683 25.6735 77.3604 25.1549 77.3604 24.4972C77.3604 23.9659 77.1285 23.5991 76.6647 23.3967C76.2009 23.1943 75.4842 23.0931 74.5144 23.0931H72.5159C71.8076 23.0931 71.2131 23.2576 70.7324 23.5865C70.2602 23.9238 70.0241 24.3665 70.0241 24.9146ZM71.4281 13.4041C71.4281 14.1715 71.601 14.7786 71.9467 15.2255C72.3009 15.6725 72.8363 15.8959 73.5531 15.8959C74.2783 15.8959 74.8096 15.6725 75.1469 15.2255C75.4842 14.7786 75.6528 14.1715 75.6528 13.4041C75.6528 11.7007 74.9529 10.849 73.5531 10.849C72.1364 10.849 71.4281 11.7007 71.4281 13.4041Z" fill="#CACACA"/>
<path d="M96.3338 22.9161H92.4758V14.6563C92.4758 12.6156 91.7169 11.5953 90.199 11.5953C89.1197 11.5953 88.3397 11.9621 87.859 12.6958C87.3783 13.4294 87.138 14.6184 87.138 16.2627V22.9161H83.2801V3.23438H87.138V7.24408C87.138 7.55608 87.1085 8.28972 87.0495 9.44498L86.9609 10.5834H87.1633C88.0234 9.20044 89.3895 8.50897 91.2616 8.50897C92.9228 8.50897 94.1834 8.95589 95.0436 9.84975C95.9037 10.7436 96.3338 12.0254 96.3338 13.695V22.9161Z" fill="#CACACA"/>
<path d="M104.163 22.9161H100.306V3.23438H104.163V22.9161Z" fill="#CACACA"/>
<path d="M111.297 15.82C111.297 17.2198 111.525 18.2781 111.98 18.9949C112.444 19.7117 113.195 20.0701 114.232 20.0701C115.261 20.0701 115.999 19.7159 116.446 19.0076C116.901 18.2908 117.129 17.2283 117.129 15.82C117.129 14.4202 116.901 13.3704 116.446 12.6705C115.99 11.9705 115.244 11.6206 114.207 11.6206C113.178 11.6206 112.436 11.9705 111.98 12.6705C111.525 13.3619 111.297 14.4118 111.297 15.82ZM121.075 15.82C121.075 18.1221 120.468 19.9225 119.254 21.2211C118.039 22.5197 116.349 23.169 114.181 23.169C112.824 23.169 111.626 22.8739 110.589 22.2836C109.552 21.6849 108.755 20.829 108.198 19.7159C107.642 18.6028 107.364 17.3042 107.364 15.82C107.364 13.5095 107.967 11.7134 109.172 10.4316C110.378 9.14984 112.073 8.50897 114.257 8.50897C115.615 8.50897 116.812 8.80411 117.85 9.39439C118.887 9.98467 119.684 10.8321 120.24 11.9368C120.797 13.0415 121.075 14.3359 121.075 15.82Z" fill="#CACACA"/>
<path d="M135.887 22.9161L134.799 17.9703L133.332 11.7218H133.243L130.663 22.9161H126.514L122.492 8.77459H126.337L127.969 15.0358C128.23 16.1573 128.496 17.7047 128.766 19.6779H128.841C128.875 19.0371 129.023 18.0209 129.284 16.6296L129.487 15.5544L131.232 8.77459H135.482L137.139 15.5544C137.173 15.7399 137.223 16.014 137.291 16.3766C137.367 16.7392 137.438 17.1271 137.506 17.5403C137.573 17.945 137.632 18.3456 137.683 18.7419C137.742 19.1298 137.776 19.4418 137.784 19.6779H137.86C137.936 19.0708 138.071 18.2402 138.265 17.1861C138.459 16.1236 138.598 15.4068 138.682 15.0358L140.377 8.77459H144.159L140.086 22.9161H135.887Z" fill="#CACACA"/>
<path d="M13.4506 25.9053C20.8792 25.9053 26.9013 20.1063 26.9013 12.9528C26.9013 5.79933 20.8792 0.00033022 13.4506 0.000330132C6.02209 0.000330043 2.39759e-07 5.79938 1.54456e-07 12.9528C6.91525e-08 20.1062 6.02204 25.9053 13.4506 25.9053ZM23.4301 12.9528L3.47113 12.9528C3.47113 7.64098 7.93539 3.3429 13.4506 3.3429C18.9668 3.3429 23.4301 7.64182 23.4301 12.9528Z" fill="#CACACA"/>
</g>
<defs>
<clipPath id="clip0_48_2351">
<rect width="144.159" height="29.1392" fill="white"/>
</clipPath>
</defs>
</svg>
