<svg width="133" height="46" viewBox="0 0 133 46" fill="none" xmlns="http://www.w3.org/2000/svg">
<g clip-path="url(#clip0_48_2360)">
<path d="M60.1176 27.1222H57.15V20.7685C57.15 19.9837 57.017 19.3966 56.751 19.0074C56.4916 18.6117 56.0797 18.4139 55.5153 18.4139C54.7564 18.4139 54.205 18.6928 53.8612 19.2507C53.5175 19.8085 53.3456 20.7264 53.3456 22.0042V27.1222H50.3779V16.2441H52.645L53.0439 17.6355H53.2093C53.5012 17.136 53.9229 16.7468 54.4742 16.4679C55.0256 16.1825 55.658 16.0398 56.3716 16.0398C57.9997 16.0398 59.1024 16.5717 59.6797 17.6355H59.9424C60.2343 17.1295 60.6625 16.7371 61.2268 16.4582C61.7976 16.1793 62.4398 16.0398 63.1533 16.0398C64.3858 16.0398 65.3166 16.3576 65.9458 16.9933C66.5815 17.6225 66.8993 18.6344 66.8993 20.0291V27.1222H63.922V20.7685C63.922 19.9837 63.789 19.3966 63.5231 19.0074C63.2636 18.6117 62.8517 18.4139 62.2874 18.4139C61.5609 18.4139 61.016 18.6734 60.6527 19.1923C60.296 19.7112 60.1176 20.535 60.1176 21.6637V27.1222Z" fill="#CACACA"/>
<path d="M76.8628 27.1222L76.2887 25.6432H76.2109C75.7114 26.2724 75.1957 26.7103 74.6638 26.9568C74.1384 27.1968 73.4508 27.3168 72.6011 27.3168C71.5567 27.3168 70.7329 27.0184 70.1297 26.4216C69.5329 25.8249 69.2345 24.9751 69.2345 23.8724C69.2345 22.7178 69.6367 21.868 70.441 21.3231C71.2519 20.7718 72.4713 20.4669 74.0995 20.4085L75.9871 20.3502V19.8734C75.9871 18.7707 75.4227 18.2193 74.2941 18.2193C73.4249 18.2193 72.4032 18.482 71.2292 19.0074L70.2464 17.0031C71.4983 16.3479 72.8865 16.0203 74.4108 16.0203C75.8703 16.0203 76.9893 16.3382 77.7677 16.9739C78.5461 17.6096 78.9352 18.5761 78.9352 19.8734V27.1222H76.8628ZM75.9871 22.0821L74.839 22.121C73.9762 22.1469 73.3341 22.3026 72.9124 22.588C72.4908 22.8734 72.28 23.308 72.28 23.8918C72.28 24.7286 72.76 25.147 73.72 25.147C74.4076 25.147 74.9557 24.9492 75.3644 24.5535C75.7795 24.1578 75.9871 23.6324 75.9871 22.9772V22.0821Z" fill="#CACACA"/>
<path d="M92.0415 27.1222H89.0738V20.7685C89.0738 19.9837 88.9344 19.3966 88.6554 19.0074C88.3765 18.6117 87.9322 18.4139 87.3224 18.4139C86.4922 18.4139 85.8921 18.6928 85.5224 19.2507C85.1527 19.802 84.9678 20.7199 84.9678 22.0042V27.1222H82.0002V16.2441H84.2672L84.6662 17.6355H84.8316C85.1624 17.1101 85.6165 16.7144 86.1938 16.4485C86.7776 16.176 87.4392 16.0398 88.1787 16.0398C89.4436 16.0398 90.4036 16.3836 91.0587 17.0712C91.7139 17.7523 92.0415 18.7382 92.0415 20.0291V27.1222Z" fill="#CACACA"/>
<path d="M99.6794 24.9524C100.198 24.9524 100.821 24.8389 101.548 24.6119V26.8206C100.808 27.1514 99.9 27.3168 98.8232 27.3168C97.6362 27.3168 96.7702 27.0184 96.2253 26.4216C95.6869 25.8184 95.4177 24.9167 95.4177 23.7167V18.4723H93.9972V17.2171L95.6318 16.2247L96.488 13.9284H98.3854V16.2441H101.431V18.4723H98.3854V23.7167C98.3854 24.1383 98.5021 24.4497 98.7356 24.6508C98.9756 24.8519 99.2902 24.9524 99.6794 24.9524Z" fill="#CACACA"/>
<path d="M113.798 27.1222H110.83V20.7685C110.83 19.1988 110.246 18.4139 109.079 18.4139C108.248 18.4139 107.648 18.6961 107.279 19.2604C106.909 19.8247 106.724 20.7394 106.724 22.0042V27.1222H103.756V11.9824H106.724V15.0668C106.724 15.3068 106.701 15.8711 106.656 16.7598L106.588 17.6355H106.743C107.405 16.5717 108.456 16.0398 109.896 16.0398C111.174 16.0398 112.143 16.3836 112.805 17.0712C113.467 17.7588 113.798 18.7447 113.798 20.0291V27.1222Z" fill="#CACACA"/>
<path d="M124.559 27.1222L124.16 25.7308H124.004C123.686 26.2368 123.236 26.6292 122.652 26.9081C122.068 27.1806 121.403 27.3168 120.657 27.3168C119.379 27.3168 118.416 26.9762 117.767 26.2951C117.119 25.6076 116.794 24.6216 116.794 23.3372V16.2441H119.762V22.5978C119.762 23.3826 119.901 23.9729 120.18 24.3686C120.459 24.7578 120.904 24.9524 121.513 24.9524C122.344 24.9524 122.944 24.6767 123.313 24.1254C123.683 23.5675 123.868 22.6464 123.868 21.3621V16.2441H126.836V27.1222H124.559Z" fill="#CACACA"/>
<path d="M132.917 27.1222H129.949V11.9824H132.917V27.1222Z" fill="#CACACA"/>
<path d="M0.000259399 19.1514C0.000259617 16.6654 0.489914 14.2037 1.44126 11.907C2.39261 9.6102 3.78702 7.52332 5.54488 5.76545C7.30275 4.00759 9.38964 2.61318 11.6864 1.66183C13.9832 0.710481 16.4448 0.220829 18.9308 0.220829C21.4168 0.220829 23.8784 0.710482 26.1752 1.66183C28.472 2.61318 30.5588 4.00759 32.3167 5.76546C34.0746 7.52332 35.469 9.61021 36.4203 11.907C37.3717 14.2037 37.8613 16.6654 37.8613 19.1514L28.3961 19.1514C28.3961 17.9084 28.1512 16.6775 27.6756 15.5292C27.1999 14.3808 26.5027 13.3373 25.6237 12.4584C24.7448 11.5795 23.7014 10.8823 22.553 10.4066C21.4046 9.93092 20.1738 9.6861 18.9308 9.6861C17.6878 9.6861 16.457 9.93092 15.3086 10.4066C14.1602 10.8823 13.1168 11.5795 12.2378 12.4584C11.3589 13.3373 10.6617 14.3808 10.186 15.5292C9.71035 16.6775 9.46553 17.9084 9.46553 19.1514L0.000259399 19.1514Z" fill="#CACACA"/>
<path fill-rule="evenodd" clip-rule="evenodd" d="M12.4488 34.7999C11.0104 34.2041 9.6639 33.414 8.44602 32.4541L12.3612 28.5389C13.0421 29.0154 13.7744 29.4176 14.5459 29.7371C15.936 30.313 17.426 30.6093 18.9307 30.6093C20.4353 30.6093 21.9253 30.313 23.3154 29.7371C24.0869 29.4176 24.8193 29.0154 25.5002 28.5389L29.4153 32.4541C28.1974 33.414 26.851 34.2041 25.4125 34.7999C23.3575 35.6511 21.155 36.0892 18.9307 36.0892C16.7064 36.0892 14.5038 35.6511 12.4488 34.7999ZM30.8332 33.872C31.3498 33.4542 31.845 33.0088 32.3166 32.5373L25.6236 25.8443C24.7447 26.7233 23.7012 27.4205 22.5529 27.8961C21.4045 28.3718 20.1737 28.6166 18.9307 28.6166C17.6877 28.6166 16.4568 28.3718 15.3085 27.8961C14.1601 27.4205 13.1166 26.7233 12.2377 25.8443L5.54476 32.5373C6.01631 33.0088 6.51155 33.4542 7.02817 33.872C8.43737 35.0114 10.0056 35.9448 11.6863 36.6409C13.983 37.5923 16.4447 38.0819 18.9307 38.0819C21.4167 38.0819 23.8783 37.5923 26.1751 36.6409C27.8557 35.9448 29.424 35.0114 30.8332 33.872Z" fill="#CACACA"/>
</g>
<defs>
<clipPath id="clip0_48_2360">
<rect width="132.917" height="45.7026" fill="white" transform="translate(0 0.220703)"/>
</clipPath>
</defs>
</svg>
