<svg width="18" height="19" viewBox="0 0 18 19" fill="none" xmlns="http://www.w3.org/2000/svg">
<path fill-rule="evenodd" clip-rule="evenodd" d="M15 4.25H3C2.58579 4.25 2.25 4.58579 2.25 5V14C2.25 14.4142 2.58579 14.75 3 14.75H15C15.4142 14.75 15.75 14.4142 15.75 14V5C15.75 4.58579 15.4142 4.25 15 4.25ZM3 2.75C1.75736 2.75 0.75 3.75736 0.75 5V14C0.75 15.2427 1.75736 16.25 3 16.25H15C16.2427 16.25 17.25 15.2427 17.25 14V5C17.25 3.75736 16.2427 2.75 15 2.75H3Z" fill="#EAA451"/>
<path fill-rule="evenodd" clip-rule="evenodd" d="M3.92385 6.01988C4.18903 5.70167 4.66195 5.65868 4.98016 5.92385L8.51987 8.87362C8.79805 9.10537 9.202 9.10537 9.48017 8.87362L13.0199 5.92385C13.3381 5.65868 13.811 5.70167 14.0762 6.01988C14.3414 6.33809 14.2984 6.81101 13.9802 7.07619L10.4404 10.0259C9.60602 10.7213 8.39402 10.7213 7.55957 10.0259L4.01988 7.07619C3.70167 6.81101 3.65868 6.33809 3.92385 6.01988Z" fill="#EAA451"/>
</svg>
