<svg width="18" height="19" viewBox="0 0 18 19" fill="none" xmlns="http://www.w3.org/2000/svg">
<path fill-rule="evenodd" clip-rule="evenodd" d="M12.4811 12.9334C13.5317 11.4751 14.25 9.87233 14.25 8.25C14.25 5.35051 11.8995 3 9 3C6.10051 3 3.75 5.35051 3.75 8.25C3.75 9.87233 4.46827 11.4751 5.51885 12.9334C6.56151 14.3807 7.84358 15.5627 8.75768 16.3114C8.9076 16.4342 9.0924 16.4342 9.24232 16.3114C10.1564 15.5627 11.4385 14.3807 12.4811 12.9334ZM10.1928 17.4718C12.1309 15.8843 15.75 12.3688 15.75 8.25C15.75 4.52208 12.728 1.5 9 1.5C5.27208 1.5 2.25 4.52208 2.25 8.25C2.25 12.3688 5.86903 15.8843 7.8072 17.4718C8.50995 18.0473 9.49005 18.0473 10.1928 17.4718Z" fill="#EAA451"/>
<path fill-rule="evenodd" clip-rule="evenodd" d="M8.99999 6.75C8.17155 6.75 7.5 7.42157 7.5 8.24999C7.5 9.07844 8.17155 9.74999 8.99999 9.74999C9.82844 9.74999 10.5 9.07844 10.5 8.24999C10.5 7.42157 9.82844 6.75 8.99999 6.75ZM6 8.24999C6 6.59314 7.34314 5.25 8.99999 5.25C10.6568 5.25 12 6.59314 12 8.24999C12 9.90682 10.6568 11.25 8.99999 11.25C7.34314 11.25 6 9.90682 6 8.24999Z" fill="#EAA451"/>
</svg>
