<svg width="18" height="19" viewBox="0 0 18 19" fill="none" xmlns="http://www.w3.org/2000/svg">
<path fill-rule="evenodd" clip-rule="evenodd" d="M3.48522 2.51429C4.45341 1.54609 6.05467 1.65989 6.87621 2.75528L8.23994 4.57355C8.91172 5.46932 8.82269 6.72278 8.03092 7.51454L7.02548 8.51996C7.12292 8.77361 7.44368 9.33011 8.42046 10.3069C9.39726 11.2837 9.95384 11.6045 10.2075 11.7019L11.2129 10.6965C12.0046 9.90476 13.2581 9.81566 14.1538 10.4875L15.9721 11.8512C17.0675 12.6728 17.1814 14.274 16.2131 15.2422C15.8983 15.557 15.8451 15.6102 15.3198 16.1355C14.7844 16.6709 13.6477 17.1713 12.4968 17.2213C10.6958 17.2996 8.24954 16.5 5.2385 13.4889C2.2275 10.4779 1.42779 8.03159 1.5061 6.2306C1.54966 5.22875 1.86818 4.1284 2.59608 3.4118C3.11718 2.88233 3.18495 2.81456 3.48522 2.51429ZM3.00468 6.29576C2.95041 7.54416 3.47654 9.60566 6.29916 12.4283C9.12179 15.2509 11.1832 15.777 12.4317 15.7227C13.597 15.672 14.2222 15.1089 14.2591 15.0749L15.1525 14.1816C15.4752 13.8588 15.4373 13.3251 15.0721 13.0512L13.2538 11.6875C12.9553 11.4636 12.5374 11.4933 12.2735 11.7572C11.8759 12.1548 11.6044 12.4302 11.0731 12.9596C9.96944 14.0592 8.08012 12.0879 7.35982 11.3676C6.69789 10.7057 4.68064 8.75636 5.76675 7.65738C5.7689 7.65522 6.06144 7.36268 6.97024 6.45388C7.23416 6.18996 7.26386 5.77214 7.03992 5.47355L5.67621 3.65528C5.40236 3.29015 4.86861 3.25221 4.54588 3.57494C4.24884 3.87198 3.91267 4.20815 3.65345 4.46917C3.11992 5.00639 3.03324 5.63906 3.00468 6.29576Z" fill="#EAA451"/>
</svg>
