<svg width="164" height="36" viewBox="0 0 164 36" fill="none" xmlns="http://www.w3.org/2000/svg">
<path d="M61.6333 26.3242H63.4482C64.2979 26.3242 64.9131 26.4517 65.2939 26.7065C65.6777 26.9614 65.8696 27.3643 65.8696 27.915C65.8696 28.2988 65.7627 28.6138 65.5488 28.8599C65.335 29.106 65.0259 29.2656 64.6216 29.3389V29.3828C65.5972 29.5498 66.085 30.0625 66.085 30.9209C66.085 31.498 65.8887 31.9478 65.4961 32.27C65.1064 32.5894 64.5659 32.749 63.8745 32.749H61.6333V26.3242ZM62.3804 26.9702V29.0752H63.6108C64.1353 29.0752 64.5146 28.9932 64.749 28.8291C64.9775 28.665 65.0918 28.394 65.0918 28.0161C65.0918 27.6382 64.9644 27.3701 64.7095 27.2119C64.4546 27.0508 64.0444 26.9702 63.479 26.9702H62.3804ZM62.3804 29.708V32.1118H63.7207C64.2451 32.1118 64.6362 32.0107 64.894 31.8086C65.1548 31.6064 65.2852 31.3003 65.2852 30.8901C65.2852 30.48 65.1519 30.1812 64.8853 29.9937C64.6187 29.8032 64.21 29.708 63.6592 29.708H62.3804ZM67.0869 30.3364C67.0869 29.5513 67.2817 28.9404 67.6714 28.5039C68.064 28.0645 68.603 27.8447 69.2886 27.8447C69.9771 27.8447 70.5176 28.0688 70.9102 28.5171C71.3115 28.9624 71.5122 29.5732 71.5122 30.3496C71.5122 31.126 71.3145 31.7354 70.9189 32.1777C70.5234 32.6172 69.9771 32.8369 69.2798 32.8369C69.2681 32.8369 69.2563 32.8369 69.2446 32.8369C68.6089 32.8369 68.0903 32.6113 67.689 32.1602C67.2876 31.709 67.0869 31.1216 67.0869 30.3979C67.0869 30.3774 67.0869 30.3569 67.0869 30.3364ZM69.2886 28.4688C68.3247 28.4688 67.8428 29.0913 67.8428 30.3364C67.8428 30.9517 67.9658 31.4204 68.2119 31.7427C68.4609 32.0649 68.8228 32.2261 69.2974 32.2261C69.7749 32.2261 70.1367 32.0664 70.3828 31.7471C70.6318 31.4248 70.7563 30.9561 70.7563 30.3408C70.7563 29.7256 70.6318 29.2598 70.3828 28.9434C70.1367 28.627 69.772 28.4688 69.2886 28.4688ZM72.5273 30.3364C72.5273 29.5513 72.7222 28.9404 73.1118 28.5039C73.5044 28.0645 74.0435 27.8447 74.729 27.8447C75.4175 27.8447 75.958 28.0688 76.3506 28.5171C76.752 28.9624 76.9526 29.5732 76.9526 30.3496C76.9526 31.126 76.7549 31.7354 76.3594 32.1777C75.9639 32.6172 75.4175 32.8369 74.7202 32.8369C74.7085 32.8369 74.6968 32.8369 74.6851 32.8369C74.0493 32.8369 73.5308 32.6113 73.1294 32.1602C72.728 31.709 72.5273 31.1216 72.5273 30.3979C72.5273 30.3774 72.5273 30.3569 72.5273 30.3364ZM74.729 28.4688C73.7651 28.4688 73.2832 29.0913 73.2832 30.3364C73.2832 30.9517 73.4062 31.4204 73.6523 31.7427C73.9014 32.0649 74.2632 32.2261 74.7378 32.2261C75.2153 32.2261 75.5771 32.0664 75.8232 31.7471C76.0723 31.4248 76.1968 30.9561 76.1968 30.3408C76.1968 29.7256 76.0723 29.2598 75.8232 28.9434C75.5771 28.627 75.2124 28.4688 74.729 28.4688ZM78.9609 25.9111V29.5366C78.9609 29.6743 78.9492 29.9233 78.9258 30.2837H78.9609C79.0957 30.0962 79.2876 29.8618 79.5366 29.5806L81.0923 27.9326H81.958L80.0068 29.9849L82.0942 32.749H81.2109L79.5103 30.4727L78.9609 30.9473V32.749H78.2402V25.9111H78.9609ZM86.7832 32.1821C87.2754 32.1821 87.6489 32.0884 87.9038 31.9009C88.1587 31.7134 88.2861 31.4497 88.2861 31.1099C88.2861 30.8901 88.2407 30.7085 88.1499 30.5649C88.062 30.4214 87.9141 30.291 87.7061 30.1738C87.501 30.0537 87.1816 29.916 86.748 29.7607C86.1475 29.5439 85.7197 29.2891 85.4648 28.9961C85.21 28.7031 85.0825 28.3164 85.0825 27.8359C85.0825 27.3525 85.2686 26.9644 85.6406 26.6714C86.0127 26.3784 86.5107 26.2319 87.1348 26.2319C87.7588 26.2319 88.3389 26.3491 88.875 26.5835L88.6465 27.2339C88.1191 27.0112 87.6035 26.8999 87.0996 26.8999C86.7041 26.8999 86.395 26.9849 86.1724 27.1548C85.9497 27.3247 85.8384 27.5605 85.8384 27.8623C85.8384 28.082 85.8794 28.2637 85.9614 28.4072C86.0435 28.5508 86.1782 28.6812 86.3657 28.7983C86.5562 28.9126 86.8579 29.0444 87.271 29.1938C87.9507 29.4399 88.415 29.7007 88.6641 29.9761C88.916 30.2515 89.042 30.606 89.042 31.0396C89.042 31.5991 88.8369 32.04 88.4268 32.3623C88.0166 32.6787 87.4438 32.8369 86.7085 32.8369C85.9731 32.8369 85.4033 32.7388 84.999 32.5425V31.8218C85.5645 32.062 86.1592 32.1821 86.7832 32.1821ZM91.0283 27.9326H92.4258V28.4995H91.0283V31.334C91.0283 31.6211 91.0957 31.8438 91.2305 32.002C91.3682 32.1572 91.5557 32.2349 91.793 32.2349C92.0303 32.2349 92.2529 32.2056 92.4609 32.147V32.7095C92.3906 32.7446 92.2764 32.7739 92.1182 32.7974C91.96 32.8237 91.8193 32.8369 91.6963 32.8369C90.7646 32.8369 90.2988 32.3462 90.2988 31.3647V28.4995H89.6089V28.1479L90.2988 27.8447L90.6064 26.8164H91.0283V27.9326ZM93.1553 30.3364C93.1553 29.5513 93.3501 28.9404 93.7397 28.5039C94.1323 28.0645 94.6714 27.8447 95.3569 27.8447C96.0454 27.8447 96.5859 28.0688 96.9785 28.5171C97.3799 28.9624 97.5806 29.5732 97.5806 30.3496C97.5806 31.126 97.3828 31.7354 96.9873 32.1777C96.5918 32.6172 96.0454 32.8369 95.3481 32.8369C95.3364 32.8369 95.3247 32.8369 95.313 32.8369C94.6772 32.8369 94.1587 32.6113 93.7573 32.1602C93.356 31.709 93.1553 31.1216 93.1553 30.3979C93.1553 30.3774 93.1553 30.3569 93.1553 30.3364ZM95.3569 28.4688C94.3931 28.4688 93.9111 29.0913 93.9111 30.3364C93.9111 30.9517 94.0342 31.4204 94.2803 31.7427C94.5293 32.0649 94.8911 32.2261 95.3657 32.2261C95.8433 32.2261 96.2051 32.0664 96.4512 31.7471C96.7002 31.4248 96.8247 30.9561 96.8247 30.3408C96.8247 29.7256 96.7002 29.2598 96.4512 28.9434C96.2051 28.627 95.8403 28.4688 95.3569 28.4688ZM101.065 27.8447C101.276 27.8447 101.468 27.8623 101.641 27.8975L101.54 28.5742C101.341 28.5303 101.165 28.5083 101.013 28.5083C100.62 28.5083 100.286 28.6665 100.011 28.9829C99.7354 29.2964 99.5977 29.6904 99.5977 30.165V32.749H98.8682V27.9326H99.4702L99.5537 28.8247H99.5889C99.7676 28.5083 99.9829 28.2666 100.235 28.0996C100.49 27.9297 100.767 27.8447 101.065 27.8447ZM104.577 32.8369C103.865 32.8369 103.302 32.6201 102.889 32.1865C102.479 31.75 102.274 31.145 102.274 30.3716C102.274 29.5981 102.464 28.9844 102.845 28.5303C103.229 28.0732 103.733 27.8447 104.357 27.8447C104.984 27.8447 105.472 28.0454 105.82 28.4468C106.172 28.8364 106.348 29.3579 106.348 30.0112V30.4727H103.03C103.044 31.0352 103.187 31.4644 103.456 31.7603C103.726 32.0532 104.114 32.1997 104.621 32.1997C105.127 32.1997 105.633 32.0913 106.137 31.8745V32.5249C105.882 32.6362 105.637 32.7153 105.403 32.7622C105.171 32.812 104.896 32.8369 104.577 32.8369ZM105.565 29.8794C105.565 29.4224 105.463 29.0723 105.258 28.8291C105.053 28.583 104.758 28.46 104.375 28.46C103.994 28.46 103.688 28.5845 103.456 28.8335C103.225 29.0825 103.088 29.4312 103.047 29.8794H105.565ZM115.651 32.749H114.913L113.616 28.4512C113.546 28.2432 113.476 27.9985 113.405 27.7173C113.335 27.4331 113.297 27.2617 113.291 27.2031C113.224 27.5957 113.121 28.0205 112.983 28.4775L111.727 32.749H110.988L109.279 26.3242H110.07L111.085 30.2925C111.223 30.8403 111.325 31.3442 111.393 31.8042C111.469 31.2798 111.586 30.7554 111.744 30.231L112.896 26.3242H113.687L114.895 30.2661C115.036 30.7173 115.154 31.23 115.251 31.8042C115.307 31.3911 115.412 30.8843 115.567 30.2837L116.578 26.3242H117.369L115.651 32.749ZM120.3 32.8369C119.588 32.8369 119.026 32.6201 118.613 32.1865C118.203 31.75 117.998 31.145 117.998 30.3716C117.998 29.5981 118.188 28.9844 118.569 28.5303C118.953 28.0732 119.457 27.8447 120.081 27.8447C120.708 27.8447 121.195 28.0454 121.544 28.4468C121.896 28.8364 122.071 29.3579 122.071 30.0112V30.4727H118.753C118.768 31.0352 118.91 31.4644 119.18 31.7603C119.449 32.0532 119.837 32.1997 120.344 32.1997C120.851 32.1997 121.356 32.0913 121.86 31.8745V32.5249C121.605 32.6362 121.361 32.7153 121.126 32.7622C120.895 32.812 120.62 32.8369 120.3 32.8369ZM121.289 29.8794C121.289 29.4224 121.187 29.0723 120.981 28.8291C120.776 28.583 120.482 28.46 120.098 28.46C119.717 28.46 119.411 28.5845 119.18 28.8335C118.948 29.0825 118.812 29.4312 118.771 29.8794H121.289ZM124.049 25.9111V27.5723C124.049 27.9268 124.037 28.2607 124.014 28.5742H124.049C124.389 28.0938 124.884 27.8535 125.534 27.8535C126.188 27.8535 126.687 28.0703 127.033 28.5039C127.384 28.9346 127.56 29.5469 127.56 30.3408C127.56 31.1318 127.383 31.7456 127.028 32.1821C126.677 32.6187 126.179 32.8369 125.534 32.8369C124.89 32.8369 124.395 32.6011 124.049 32.1294H123.996L123.842 32.749H123.319V25.9111H124.049ZM126.8 30.3232C126.8 29.6992 126.69 29.2349 126.47 28.9302C126.25 28.6226 125.902 28.4688 125.424 28.4688C124.947 28.4688 124.598 28.6108 124.378 28.895C124.159 29.1792 124.049 29.6597 124.049 30.3364C124.049 31.0103 124.162 31.4951 124.387 31.791C124.613 32.0811 124.975 32.2261 125.473 32.2261C125.915 32.2261 126.246 32.0649 126.466 31.7427C126.688 31.4204 126.8 30.9473 126.8 30.3232ZM130.056 32.2349C130.847 32.2349 131.243 31.9888 131.243 31.4966C131.243 31.3091 131.161 31.1494 130.997 31.0176C130.835 30.8828 130.519 30.7246 130.047 30.543C129.596 30.376 129.275 30.2295 129.085 30.1035C128.897 29.9775 128.758 29.8369 128.667 29.6816C128.577 29.5264 128.531 29.3374 128.531 29.1147C128.531 28.7251 128.691 28.416 129.01 28.1875C129.33 27.959 129.757 27.8447 130.293 27.8447C130.83 27.8447 131.347 27.9502 131.845 28.1611L131.585 28.7544C131.105 28.5581 130.68 28.46 130.311 28.46C129.945 28.46 129.672 28.5127 129.494 28.6182C129.315 28.7236 129.226 28.873 129.226 29.0664C129.226 29.1953 129.258 29.3052 129.322 29.396C129.387 29.4868 129.492 29.5732 129.639 29.6553C129.785 29.7373 130.068 29.856 130.487 30.0112C131.058 30.2192 131.443 30.4287 131.643 30.6396C131.845 30.8506 131.946 31.1157 131.946 31.4351C131.946 31.8833 131.777 32.229 131.44 32.4722C131.106 32.7153 130.629 32.8369 130.008 32.8369C129.39 32.8369 128.902 32.7358 128.544 32.5337V31.8569C129.042 32.1089 129.546 32.2349 130.056 32.2349ZM133.066 26.6274C133.066 26.4663 133.106 26.3462 133.185 26.2671C133.264 26.1851 133.367 26.144 133.493 26.144C133.619 26.144 133.723 26.1851 133.805 26.2671C133.887 26.3491 133.928 26.4692 133.928 26.6274C133.928 26.7856 133.887 26.9072 133.805 26.9922C133.723 27.0742 133.619 27.1152 133.493 27.1152C133.367 27.1152 133.264 27.0742 133.185 26.9922C133.106 26.9072 133.066 26.7856 133.066 26.6274ZM133.857 32.749H133.128V27.9326H133.857V32.749ZM136.187 27.9326H137.584V28.4995H136.187V31.334C136.187 31.6211 136.254 31.8438 136.389 32.002C136.526 32.1572 136.714 32.2349 136.951 32.2349C137.188 32.2349 137.411 32.2056 137.619 32.147V32.7095C137.549 32.7446 137.435 32.7739 137.276 32.7974C137.118 32.8237 136.978 32.8369 136.854 32.8369C135.923 32.8369 135.457 32.3462 135.457 31.3647V28.4995H134.767V28.1479L135.457 27.8447L135.765 26.8164H136.187V27.9326ZM140.621 32.8369C139.909 32.8369 139.346 32.6201 138.933 32.1865C138.523 31.75 138.318 31.145 138.318 30.3716C138.318 29.5981 138.508 28.9844 138.889 28.5303C139.273 28.0732 139.777 27.8447 140.401 27.8447C141.028 27.8447 141.516 28.0454 141.864 28.4468C142.216 28.8364 142.392 29.3579 142.392 30.0112V30.4727H139.074C139.088 31.0352 139.23 31.4644 139.5 31.7603C139.77 32.0532 140.158 32.1997 140.665 32.1997C141.171 32.1997 141.677 32.0913 142.181 31.8745V32.5249C141.926 32.6362 141.681 32.7153 141.447 32.7622C141.215 32.812 140.94 32.8369 140.621 32.8369ZM141.609 29.8794C141.609 29.4224 141.507 29.0723 141.302 28.8291C141.097 28.583 140.802 28.46 140.418 28.46C140.038 28.46 139.731 28.5845 139.5 28.8335C139.269 29.0825 139.132 29.4312 139.091 29.8794H141.609Z" fill="white"/>
<path d="M70.5149 12.3448C70.5149 13.4323 69.7972 13.9978 68.5574 13.9978H65.8169V10.6265H68.5139C69.7537 10.6265 70.5149 11.2573 70.5149 12.3448ZM70.1452 6.32005C70.1452 7.36405 69.4709 7.9078 68.2529 7.9078H65.8169V4.71055H68.2529C69.4709 4.71055 70.1452 5.27605 70.1452 6.32005ZM74.2777 12.845C74.2777 11.105 73.1249 9.53905 71.3414 9.1693C72.8204 8.7343 73.9297 7.53805 73.9297 5.6893C73.9297 3.27505 72.0809 1.7308 68.9707 1.7308H62.0977V16.9993H69.2099C72.4289 16.9993 74.2777 15.368 74.2777 12.845Z" fill="white"/>
<path d="M88.3103 10.931C88.3103 7.0813 85.5698 4.6888 82.0028 4.6888C78.4576 4.6888 75.6953 7.0813 75.6953 10.931C75.6953 14.7808 78.3923 17.1733 81.9593 17.1733C85.5263 17.1733 88.3103 14.7808 88.3103 10.931ZM79.4798 10.931C79.4798 8.8648 80.6543 7.9078 82.0028 7.9078C83.3078 7.9078 84.5258 8.8648 84.5258 10.931C84.5258 12.9755 83.2861 13.9543 81.9593 13.9543C80.6108 13.9543 79.4798 12.9755 79.4798 10.931Z" fill="white"/>
<path d="M102.159 10.931C102.159 7.0813 99.4184 4.6888 95.8514 4.6888C92.3062 4.6888 89.5439 7.0813 89.5439 10.931C89.5439 14.7808 92.2409 17.1733 95.8079 17.1733C99.3749 17.1733 102.159 14.7808 102.159 10.931ZM93.3284 10.931C93.3284 8.8648 94.5029 7.9078 95.8514 7.9078C97.1564 7.9078 98.3745 8.8648 98.3745 10.931C98.3745 12.9755 97.1347 13.9543 95.8079 13.9543C94.4594 13.9543 93.3284 12.9755 93.3284 10.931Z" fill="white"/>
<path d="M104.132 16.9993H107.851V11.9098L111.549 16.9993H116.16L111.07 10.9528L116.116 4.8628H111.527L107.851 9.80005V0.904297H104.132V16.9993Z" fill="white"/>
<path d="M117.881 16.9993H120.36V0.904297H117.881V16.9993Z" fill="#EAA451"/>
<path d="M122.789 10.9528C122.789 14.6503 125.29 17.195 128.401 17.195C130.402 17.195 131.837 16.238 132.598 15.2158V16.9993H135.1V5.01505H132.598V6.75505C131.859 5.7763 130.467 4.8193 128.444 4.8193C125.29 4.8193 122.789 7.2553 122.789 10.9528ZM132.598 10.9963C132.598 13.5845 130.837 15.0418 128.966 15.0418C127.117 15.0418 125.334 13.541 125.334 10.9528C125.334 8.36455 127.117 6.97255 128.966 6.97255C130.837 6.97255 132.598 8.4298 132.598 10.9963Z" fill="#EAA451"/>
<path d="M146.861 16.9993H149.318V9.93055C149.318 6.58105 147.209 4.8193 144.403 4.8193C142.967 4.8193 141.641 5.40655 140.836 6.3853V5.01505H138.356V16.9993H140.836V10.3003C140.836 8.10355 142.032 6.97255 143.859 6.97255C145.664 6.97255 146.861 8.10355 146.861 10.3003V16.9993Z" fill="#EAA451"/>
<path d="M151.655 10.9528C151.655 14.6503 154.156 17.195 157.31 17.195C159.267 17.195 160.703 16.2815 161.464 15.194V16.9993H163.965V0.904297H161.464V6.6898C160.55 5.5588 158.897 4.8193 157.331 4.8193C154.156 4.8193 151.655 7.2553 151.655 10.9528ZM161.464 10.9963C161.464 13.5845 159.702 15.0418 157.832 15.0418C155.983 15.0418 154.199 13.541 154.199 10.9528C154.199 8.36455 155.983 6.97255 157.832 6.97255C159.702 6.97255 161.464 8.4298 161.464 10.9963Z" fill="#EAA451"/>
<path d="M3 26.749V7.24902C2.20435 7.24902 1.44129 7.56509 0.87868 8.1277C0.316071 8.69031 0 9.45337 0 10.249V31.249C0 32.0447 0.316071 32.8077 0.87868 33.3703C1.44129 33.933 2.20435 34.249 3 34.249H17.07C14.2603 32.2971 10.9212 31.2504 7.5 31.249C6.30653 31.249 5.16194 30.7749 4.31802 29.931C3.47411 29.0871 3 27.9425 3 26.749Z" fill="#EAA451"/>
<path d="M42 7.24902V26.749C42 27.9425 41.5259 29.0871 40.682 29.931C39.8381 30.7749 38.6935 31.249 37.5 31.249C34.0788 31.2504 30.7397 32.2971 27.93 34.249H42C42.7956 34.249 43.5587 33.933 44.1213 33.3703C44.6839 32.8077 45 32.0447 45 31.249V10.249C45 9.45337 44.6839 8.69031 44.1213 8.1277C43.5587 7.56509 42.7956 7.24902 42 7.24902Z" fill="#EAA451"/>
<path d="M7.5 1.24902C7.10218 1.24902 6.72065 1.40706 6.43934 1.68836C6.15804 1.96967 6 2.3512 6 2.74902V26.749C6 27.1468 6.15804 27.5284 6.43934 27.8097C6.72065 28.091 7.10218 28.249 7.5 28.249C12.0126 28.2537 16.3906 29.7871 19.92 32.599L21 33.469V1.51902C20.519 1.34439 20.0117 1.25308 19.5 1.24902H7.5Z" fill="#EAA451"/>
<path d="M39 26.749V2.74902C39 2.3512 38.842 1.96967 38.5607 1.68836C38.2794 1.40706 37.8978 1.24902 37.5 1.24902H25.5C24.9883 1.25308 24.481 1.34439 24 1.51902V33.469L25.08 32.599C28.6094 29.7871 32.9874 28.2537 37.5 28.249C37.8978 28.249 38.2794 28.091 38.5607 27.8097C38.842 27.5284 39 27.1468 39 26.749Z" fill="#EAA451"/>
</svg>
