<svg width="123" height="27" viewBox="0 0 123 27" fill="none" xmlns="http://www.w3.org/2000/svg">
<g clip-path="url(#clip0_41_1387)">
<path d="M46.225 19.7273H47.5862C48.2234 19.7273 48.6848 19.8229 48.9705 20.014C49.2583 20.2052 49.4022 20.5073 49.4022 20.9204C49.4022 21.2082 49.322 21.4444 49.1616 21.629C49.0012 21.8136 48.7694 21.9333 48.4662 21.9883V22.0212C49.1979 22.1465 49.5637 22.531 49.5637 23.1748C49.5637 23.6077 49.4165 23.9449 49.1221 24.1866C48.8299 24.4261 48.4245 24.5459 47.9059 24.5459H46.225V19.7273ZM46.7853 20.2118V21.7905H47.7081C48.1015 21.7905 48.386 21.729 48.5618 21.6059C48.7332 21.4829 48.8189 21.2796 48.8189 20.9962C48.8189 20.7127 48.7233 20.5117 48.5321 20.393C48.341 20.2722 48.0333 20.2118 47.6093 20.2118H46.7853ZM46.7853 22.2651V24.068H47.7905C48.1839 24.068 48.4772 23.9922 48.6705 23.8406C48.8661 23.689 48.9639 23.4593 48.9639 23.1517C48.9639 22.8441 48.8639 22.62 48.664 22.4794C48.464 22.3365 48.1575 22.2651 47.7444 22.2651H46.7853ZM50.3152 22.7364C50.3152 22.1476 50.4613 21.6894 50.7536 21.362C51.048 21.0325 51.4523 20.8677 51.9665 20.8677C52.4828 20.8677 52.8882 21.0357 53.1827 21.3719C53.4837 21.7059 53.6342 22.1641 53.6342 22.7463C53.6342 23.3286 53.4859 23.7856 53.1892 24.1174C52.8926 24.447 52.4828 24.6118 51.9599 24.6118C51.9511 24.6118 51.9423 24.6118 51.9335 24.6118C51.4567 24.6118 51.0678 24.4426 50.7668 24.1042C50.4657 23.7659 50.3152 23.3253 50.3152 22.7826C50.3152 22.7672 50.3152 22.7518 50.3152 22.7364ZM51.9665 21.3357C51.2436 21.3357 50.8821 21.8026 50.8821 22.7364C50.8821 23.1979 50.9744 23.5494 51.159 23.7911C51.3457 24.0328 51.6171 24.1537 51.9731 24.1537C52.3312 24.1537 52.6026 24.0339 52.7871 23.7944C52.9739 23.5527 53.0673 23.2012 53.0673 22.7397C53.0673 22.2783 52.9739 21.9289 52.7871 21.6916C52.6026 21.4543 52.329 21.3357 51.9665 21.3357ZM54.3956 22.7364C54.3956 22.1476 54.5417 21.6894 54.8339 21.362C55.1283 21.0325 55.5326 20.8677 56.0468 20.8677C56.5632 20.8677 56.9686 21.0357 57.263 21.3719C57.564 21.7059 57.7145 22.1641 57.7145 22.7463C57.7145 23.3286 57.5662 23.7856 57.2696 24.1174C56.973 24.447 56.5632 24.6118 56.0402 24.6118C56.0314 24.6118 56.0226 24.6118 56.0138 24.6118C55.537 24.6118 55.1481 24.4426 54.8471 24.1042C54.5461 23.7659 54.3956 23.3253 54.3956 22.7826C54.3956 22.7672 54.3956 22.7518 54.3956 22.7364ZM56.0468 21.3357C55.3239 21.3357 54.9625 21.8026 54.9625 22.7364C54.9625 23.1979 55.0547 23.5494 55.2393 23.7911C55.4261 24.0328 55.6974 24.1537 56.0534 24.1537C56.4116 24.1537 56.6829 24.0339 56.8675 23.7944C57.0543 23.5527 57.1476 23.2012 57.1476 22.7397C57.1476 22.2783 57.0543 21.9289 56.8675 21.6916C56.6829 21.4543 56.4094 21.3357 56.0468 21.3357ZM59.2208 19.4175V22.1366C59.2208 22.2399 59.212 22.4266 59.1944 22.6969H59.2208C59.3218 22.5563 59.4658 22.3805 59.6525 22.1695L60.8193 20.9336H61.4686L60.0052 22.4728L61.5708 24.5459H60.9083L59.6328 22.8386L59.2208 23.1946V24.5459H58.6802V19.4175H59.2208ZM65.0875 24.1207C65.4566 24.1207 65.7368 24.0504 65.928 23.9098C66.1191 23.7692 66.2147 23.5714 66.2147 23.3165C66.2147 23.1517 66.1806 23.0155 66.1125 22.9078C66.0466 22.8002 65.9357 22.7024 65.7796 22.6145C65.6258 22.5244 65.3863 22.4211 65.0611 22.3047C64.6107 22.1421 64.2899 21.9509 64.0987 21.7312C63.9076 21.5115 63.812 21.2214 63.812 20.8611C63.812 20.4985 63.9515 20.2074 64.2306 19.9876C64.5096 19.7679 64.8832 19.6581 65.3512 19.6581C65.8192 19.6581 66.2543 19.7459 66.6564 19.9217L66.485 20.4095C66.0895 20.2425 65.7027 20.159 65.3248 20.159C65.0282 20.159 64.7964 20.2228 64.6294 20.3502C64.4624 20.4776 64.3789 20.6545 64.3789 20.8808C64.3789 21.0456 64.4096 21.1819 64.4712 21.2895C64.5327 21.3972 64.6338 21.495 64.7744 21.5829C64.9172 21.6686 65.1435 21.7674 65.4533 21.8795C65.9631 22.0641 66.3114 22.2596 66.4982 22.4662C66.6871 22.6727 66.7816 22.9386 66.7816 23.2638C66.7816 23.6835 66.6278 24.0142 66.3202 24.2559C66.0126 24.4932 65.583 24.6118 65.0315 24.6118C64.48 24.6118 64.0526 24.5382 63.7494 24.391V23.8505C64.1734 24.0306 64.6195 24.1207 65.0875 24.1207ZM68.2714 20.9336H69.3195V21.3587H68.2714V23.4846C68.2714 23.6999 68.3219 23.8669 68.423 23.9856C68.5262 24.102 68.6669 24.1603 68.8448 24.1603C69.0228 24.1603 69.1898 24.1383 69.3458 24.0944V24.5162C69.2931 24.5426 69.2074 24.5646 69.0887 24.5822C68.9701 24.6019 68.8646 24.6118 68.7723 24.6118C68.0736 24.6118 67.7242 24.2438 67.7242 23.5077V21.3587H67.2068V21.0951L67.7242 20.8677L67.9549 20.0964H68.2714V20.9336ZM69.8666 22.7364C69.8666 22.1476 70.0127 21.6894 70.3049 21.362C70.5994 21.0325 71.0037 20.8677 71.5178 20.8677C72.0342 20.8677 72.4396 21.0357 72.734 21.3719C73.0351 21.7059 73.1856 22.1641 73.1856 22.7463C73.1856 23.3286 73.0372 23.7856 72.7406 24.1174C72.444 24.447 72.0342 24.6118 71.5112 24.6118C71.5025 24.6118 71.4937 24.6118 71.4849 24.6118C71.0081 24.6118 70.6191 24.4426 70.3181 24.1042C70.0171 23.7659 69.8666 23.3253 69.8666 22.7826C69.8666 22.7672 69.8666 22.7518 69.8666 22.7364ZM71.5178 21.3357C70.7949 21.3357 70.4335 21.8026 70.4335 22.7364C70.4335 23.1979 70.5258 23.5494 70.7103 23.7911C70.8971 24.0328 71.1685 24.1537 71.5244 24.1537C71.8826 24.1537 72.1539 24.0339 72.3385 23.7944C72.5253 23.5527 72.6187 23.2012 72.6187 22.7397C72.6187 22.2783 72.5253 21.9289 72.3385 21.6916C72.1539 21.4543 71.8804 21.3357 71.5178 21.3357ZM75.7992 20.8677C75.9574 20.8677 76.1014 20.8808 76.231 20.9072L76.1552 21.4148C76.0058 21.3818 75.8739 21.3653 75.7597 21.3653C75.4652 21.3653 75.2148 21.484 75.0082 21.7213C74.8017 21.9564 74.6984 22.2519 74.6984 22.6079V24.5459H74.1513V20.9336H74.6028L74.6654 21.6026H74.6918C74.8258 21.3653 74.9873 21.1841 75.1763 21.0588C75.3675 20.9314 75.5751 20.8677 75.7992 20.8677ZM78.4327 24.6118C77.8987 24.6118 77.4768 24.4492 77.167 24.124C76.8594 23.7966 76.7056 23.3429 76.7056 22.7628C76.7056 22.1827 76.8484 21.7224 77.1341 21.3818C77.4219 21.039 77.7998 20.8677 78.2679 20.8677C78.7381 20.8677 79.1039 21.0182 79.3654 21.3192C79.6291 21.6114 79.7609 22.0026 79.7609 22.4925V22.8386H77.2725C77.2835 23.2605 77.3901 23.5824 77.5922 23.8043C77.7944 24.024 78.0855 24.1339 78.4656 24.1339C78.8458 24.1339 79.2248 24.0526 79.6027 23.89V24.3778C79.4116 24.4613 79.2281 24.5206 79.0523 24.5558C78.8787 24.5931 78.6722 24.6118 78.4327 24.6118ZM79.1742 22.3937C79.1742 22.0509 79.0973 21.7883 78.9435 21.6059C78.7897 21.4214 78.5689 21.3291 78.2811 21.3291C77.9954 21.3291 77.7658 21.4225 77.5922 21.6092C77.4186 21.796 77.3164 22.0575 77.2857 22.3937H79.1742ZM86.7384 24.5459H86.1847L85.2124 21.3225C85.1596 21.1665 85.1069 20.983 85.0542 20.7721C85.0014 20.5589 84.9729 20.4304 84.9685 20.3865C84.9179 20.6809 84.841 20.9995 84.7378 21.3423L83.7951 24.5459H83.2414L81.9593 19.7273H82.5526L83.3139 22.7035C83.4172 23.1144 83.4941 23.4923 83.5446 23.8373C83.6018 23.444 83.6896 23.0507 83.8083 22.6573L84.6718 19.7273H85.2651L86.1715 22.6837C86.2769 23.0221 86.3659 23.4066 86.4384 23.8373C86.4802 23.5275 86.5593 23.1473 86.6757 22.6969L87.4338 19.7273H88.0271L86.7384 24.5459ZM90.2254 24.6118C89.6915 24.6118 89.2696 24.4492 88.9598 24.124C88.6522 23.7966 88.4984 23.3429 88.4984 22.7628C88.4984 22.1827 88.6412 21.7224 88.9269 21.3818C89.2147 21.039 89.5926 20.8677 90.0607 20.8677C90.5309 20.8677 90.8967 21.0182 91.1582 21.3192C91.4219 21.6114 91.5537 22.0026 91.5537 22.4925V22.8386H89.0653C89.0763 23.2605 89.1828 23.5824 89.385 23.8043C89.5871 24.024 89.8783 24.1339 90.2584 24.1339C90.6385 24.1339 91.0176 24.0526 91.3955 23.89V24.3778C91.2043 24.4613 91.0209 24.5206 90.8451 24.5558C90.6715 24.5931 90.465 24.6118 90.2254 24.6118ZM90.967 22.3937C90.967 22.0509 90.8901 21.7883 90.7363 21.6059C90.5825 21.4214 90.3617 21.3291 90.0738 21.3291C89.7882 21.3291 89.5586 21.4225 89.385 21.6092C89.2114 21.796 89.1092 22.0575 89.0785 22.3937H90.967ZM93.0369 19.4175V20.6633C93.0369 20.9292 93.0281 21.1797 93.0105 21.4148H93.0369C93.2917 21.0544 93.6631 20.8742 94.1509 20.8742C94.6409 20.8742 95.0155 21.0368 95.2748 21.362C95.5385 21.685 95.6703 22.1443 95.6703 22.7397C95.6703 23.333 95.5374 23.7933 95.2715 24.1207C95.0078 24.4481 94.6343 24.6118 94.1509 24.6118C93.6675 24.6118 93.2961 24.4349 93.0369 24.0812H92.9973L92.882 24.5459H92.4897V19.4175H93.0369ZM95.1001 22.7266C95.1001 22.2585 95.0177 21.9103 94.8529 21.6817C94.6881 21.451 94.4266 21.3357 94.0685 21.3357C93.7103 21.3357 93.4489 21.4422 93.2841 21.6554C93.1193 21.8685 93.0369 22.2289 93.0369 22.7364C93.0369 23.2418 93.1215 23.6055 93.2906 23.8274C93.4598 24.0449 93.7312 24.1537 94.1047 24.1537C94.4365 24.1537 94.6848 24.0328 94.8496 23.7911C95.0166 23.5494 95.1001 23.1946 95.1001 22.7266ZM97.5424 24.1603C98.1356 24.1603 98.4323 23.9757 98.4323 23.6066C98.4323 23.4659 98.3708 23.3462 98.2477 23.2473C98.1269 23.1462 97.8896 23.0276 97.5358 22.8913C97.1974 22.7661 96.9568 22.6562 96.814 22.5618C96.6734 22.4673 96.569 22.3618 96.5009 22.2453C96.4328 22.1289 96.3987 21.9872 96.3987 21.8202C96.3987 21.5279 96.5185 21.2961 96.758 21.1247C96.9975 20.9534 97.3183 20.8677 97.7204 20.8677C98.1225 20.8677 98.5103 20.9468 98.8838 21.105L98.6894 21.5499C98.329 21.4027 98.0104 21.3291 97.7335 21.3291C97.4589 21.3291 97.2545 21.3686 97.1205 21.4477C96.9865 21.5268 96.9195 21.6389 96.9195 21.7839C96.9195 21.8806 96.9436 21.963 96.992 22.0311C97.0403 22.0992 97.1194 22.1641 97.2293 22.2256C97.3391 22.2871 97.5512 22.3761 97.8654 22.4925C98.2938 22.6485 98.5828 22.8057 98.7322 22.9639C98.8838 23.1221 98.9596 23.3209 98.9596 23.5604C98.9596 23.8966 98.8333 24.1559 98.5806 24.3383C98.3301 24.5206 97.9719 24.6118 97.5061 24.6118C97.0425 24.6118 96.6767 24.536 96.4086 24.3844V23.8768C96.7821 24.0658 97.1601 24.1603 97.5424 24.1603ZM99.8001 19.9547C99.8001 19.8338 99.8297 19.7437 99.8891 19.6844C99.9484 19.6229 100.025 19.5921 100.12 19.5921C100.214 19.5921 100.292 19.6229 100.354 19.6844C100.415 19.7459 100.446 19.836 100.446 19.9547C100.446 20.0733 100.415 20.1645 100.354 20.2282C100.292 20.2898 100.214 20.3205 100.12 20.3205C100.025 20.3205 99.9484 20.2898 99.8891 20.2282C99.8297 20.1645 99.8001 20.0733 99.8001 19.9547ZM100.393 24.5459H99.8462V20.9336H100.393V24.5459ZM102.14 20.9336H103.188V21.3587H102.14V23.4846C102.14 23.6999 102.191 23.8669 102.292 23.9856C102.395 24.102 102.536 24.1603 102.714 24.1603C102.892 24.1603 103.059 24.1383 103.215 24.0944V24.5162C103.162 24.5426 103.076 24.5646 102.958 24.5822C102.839 24.6019 102.733 24.6118 102.641 24.6118C101.942 24.6118 101.593 24.2438 101.593 23.5077V21.3587H101.076V21.0951L101.593 20.8677L101.824 20.0964H102.14V20.9336ZM105.466 24.6118C104.932 24.6118 104.51 24.4492 104.2 24.124C103.893 23.7966 103.739 23.3429 103.739 22.7628C103.739 22.1827 103.882 21.7224 104.167 21.3818C104.455 21.039 104.833 20.8677 105.301 20.8677C105.771 20.8677 106.137 21.0182 106.399 21.3192C106.662 21.6114 106.794 22.0026 106.794 22.4925V22.8386H104.306C104.317 23.2605 104.423 23.5824 104.625 23.8043C104.827 24.024 105.119 24.1339 105.499 24.1339C105.879 24.1339 106.258 24.0526 106.636 23.89V24.3778C106.445 24.4613 106.261 24.5206 106.085 24.5558C105.912 24.5931 105.705 24.6118 105.466 24.6118ZM106.207 22.3937C106.207 22.0509 106.13 21.7883 105.977 21.6059C105.823 21.4214 105.602 21.3291 105.314 21.3291C105.029 21.3291 104.799 21.4225 104.625 21.6092C104.452 21.796 104.35 22.0575 104.319 22.3937H106.207Z" fill="white"/>
<path d="M52.8872 9.03644C52.8872 9.84789 52.3489 10.2698 51.419 10.2698H49.3637V7.75435H51.3864C52.3162 7.75435 52.8872 8.22499 52.8872 9.03644ZM52.6099 4.54101C52.6099 5.32001 52.1042 5.72573 51.1907 5.72573H49.3637V3.34007H51.1907C52.1042 3.34007 52.6099 3.76202 52.6099 4.54101ZM55.7092 9.40971C55.7092 8.11139 54.8447 6.9429 53.507 6.66701C54.6163 6.34243 55.4482 5.44984 55.4482 4.07037C55.4482 2.26896 54.0617 1.1167 51.729 1.1167H46.5742V12.5094H51.9084C54.3227 12.5094 55.7092 11.2923 55.7092 9.40971Z" fill="white"/>
<path d="M66.2338 7.98156C66.2338 5.10903 64.1784 3.32384 61.5031 3.32384C58.8442 3.32384 56.7725 5.10903 56.7725 7.98156C56.7725 10.8541 58.7952 12.6393 61.4705 12.6393C64.1458 12.6393 66.2338 10.8541 66.2338 7.98156ZM59.6109 7.98156C59.6109 6.43981 60.4917 5.72573 61.5031 5.72573C62.4819 5.72573 63.3954 6.43981 63.3954 7.98156C63.3954 9.50708 62.4656 10.2374 61.4705 10.2374C60.4591 10.2374 59.6109 9.50708 59.6109 7.98156Z" fill="white"/>
<path d="M76.6203 7.98156C76.6203 5.10903 74.5649 3.32384 71.8896 3.32384C69.2307 3.32384 67.159 5.10903 67.159 7.98156C67.159 10.8541 69.1817 12.6393 71.857 12.6393C74.5322 12.6393 76.6203 10.8541 76.6203 7.98156ZM69.9974 7.98156C69.9974 6.43981 70.8782 5.72573 71.8896 5.72573C72.8684 5.72573 73.7819 6.43981 73.7819 7.98156C73.7819 9.50708 72.8521 10.2374 71.857 10.2374C70.8456 10.2374 69.9974 9.50708 69.9974 7.98156Z" fill="white"/>
<path d="M78.1001 12.5094H80.8895V8.71186L83.6627 12.5094H87.1209L83.3038 7.99779L87.0883 3.45367H83.6464L80.8895 7.13765V0.5H78.1001V12.5094Z" fill="white"/>
<path d="M88.4111 12.5094H90.2708V0.5H88.4111V12.5094Z" fill="#EAA451"/>
<path d="M92.0924 7.99779C92.0924 10.7567 93.9684 12.6555 96.301 12.6555C97.8018 12.6555 98.8784 11.9414 99.4494 11.1787V12.5094H101.325V3.56728H99.4494V4.86559C98.8947 4.13529 97.8507 3.42122 96.3337 3.42122C93.9684 3.42122 92.0924 5.23886 92.0924 7.99779ZM99.4494 8.03024C99.4494 9.96149 98.1281 11.0488 96.7252 11.0488C95.3386 11.0488 94.001 9.92904 94.001 7.99779C94.001 6.06654 95.3386 5.02788 96.7252 5.02788C98.1281 5.02788 99.4494 6.11523 99.4494 8.03024Z" fill="#EAA451"/>
<path d="M110.146 12.5094H111.989V7.23502C111.989 4.73576 110.407 3.42122 108.303 3.42122C107.226 3.42122 106.231 3.8594 105.627 4.5897V3.56728H103.768V12.5094H105.627V7.51092C105.627 5.87179 106.525 5.02788 107.895 5.02788C109.249 5.02788 110.146 5.87179 110.146 7.51092V12.5094Z" fill="#EAA451"/>
<path d="M113.742 7.99779C113.742 10.7567 115.618 12.6555 117.983 12.6555C119.451 12.6555 120.528 11.9739 121.099 11.1624V12.5094H122.974V0.5H121.099V4.81691C120.413 3.973 119.174 3.42122 117.999 3.42122C115.618 3.42122 113.742 5.23886 113.742 7.99779ZM121.099 8.03024C121.099 9.96149 119.777 11.0488 118.374 11.0488C116.988 11.0488 115.65 9.92904 115.65 7.99779C115.65 6.06654 116.988 5.02788 118.374 5.02788C119.777 5.02788 121.099 6.11523 121.099 8.03024Z" fill="#EAA451"/>
<path d="M2.25001 19.7849V5.23477C1.65327 5.23477 1.08097 5.47061 0.659012 5.89041C0.237054 6.3102 0 6.87957 0 7.47325V23.1426C0 23.7363 0.237054 24.3057 0.659012 24.7254C1.08097 25.1452 1.65327 25.3811 2.25001 25.3811H12.8025C10.6952 23.9246 8.19092 23.1436 5.62502 23.1426C4.72991 23.1426 3.87146 22.7888 3.23852 22.1592C2.60559 21.5295 2.25001 20.6754 2.25001 19.7849Z" fill="#EAA451"/>
<path d="M31.5001 5.23477V19.7849C31.5001 20.6754 31.1445 21.5295 30.5116 22.1592C29.8786 22.7888 29.0202 23.1426 28.1251 23.1426C25.5592 23.1436 23.0548 23.9246 20.9475 25.3811H31.5001C32.0968 25.3811 32.6691 25.1452 33.0911 24.7254C33.513 24.3057 33.7501 23.7363 33.7501 23.1426V7.47325C33.7501 6.87957 33.513 6.3102 33.0911 5.89041C32.6691 5.47061 32.0968 5.23477 31.5001 5.23477Z" fill="#EAA451"/>
<path d="M5.62502 0.757812C5.32665 0.757812 5.0405 0.875732 4.82952 1.08563C4.61854 1.29553 4.50001 1.58021 4.50001 1.87705V19.7849C4.50001 20.0817 4.61854 20.3664 4.82952 20.5763C5.0405 20.7862 5.32665 20.9041 5.62502 20.9041C9.0095 20.9076 12.293 22.0517 14.94 24.1499L15.75 24.7991V0.959275C15.3893 0.828971 15.0088 0.76084 14.625 0.757812H5.62502Z" fill="#EAA451"/>
<path d="M29.2501 19.7849V1.87705C29.2501 1.58021 29.1316 1.29553 28.9206 1.08563C28.7096 0.875732 28.4234 0.757812 28.1251 0.757812H19.1251C18.7413 0.76084 18.3608 0.828971 18 0.959275V24.7991L18.8101 24.1499C21.4571 22.0517 24.7406 20.9076 28.1251 20.9041C28.4234 20.9041 28.7096 20.7862 28.9206 20.5763C29.1316 20.3664 29.2501 20.0817 29.2501 19.7849Z" fill="#EAA451"/>
</g>
<defs>
<clipPath id="clip0_41_1387">
<rect width="122.974" height="26" fill="white" transform="translate(0 0.5)"/>
</clipPath>
</defs>
</svg>
