<svg width="110" height="25" viewBox="0 0 110 25" fill="none" xmlns="http://www.w3.org/2000/svg">
<g clip-path="url(#clip0_48_2354)">
<path d="M14.7116 22.1731C13.8593 22.8503 12.7501 23.3757 11.384 23.7493C10.0179 24.1229 8.3366 24.3097 6.34002 24.3097C4.35511 24.3097 2.24177 24.1288 0 23.7668V0.683555C2.26513 0.321602 4.22668 0.140625 5.88466 0.140625C7.55431 0.140625 8.92039 0.29825 9.9829 0.613499C11.0571 0.928749 11.9328 1.35492 12.61 1.89201C13.941 2.93117 14.6066 4.27973 14.6066 5.93771C14.6066 7.58401 14.0052 8.9501 12.8026 10.036C14.2271 10.4796 15.3305 11.3203 16.1127 12.558C16.825 13.6672 17.1811 14.899 17.1811 16.2534C17.1811 17.5961 16.9826 18.7462 16.5856 19.7036C16.2003 20.661 15.5757 21.4842 14.7116 22.1731ZM4.64117 9.38794C5.13156 9.46967 5.74454 9.51054 6.48013 9.51054C7.21571 9.51054 7.81702 9.41713 8.28405 9.23032C8.76277 9.03183 9.13056 8.78663 9.38743 8.49474C9.80776 8.01602 10.0179 7.3505 10.0179 6.49816C10.0179 4.71174 8.96709 3.81854 6.86543 3.81854C5.97806 3.81854 5.23664 3.85356 4.64117 3.92362V9.38794ZM7.23322 13.1359C6.25245 13.1359 5.38843 13.2001 4.64117 13.3286V20.2115C5.45849 20.4217 6.31666 20.5268 7.21571 20.5268C8.11475 20.5268 8.90288 20.4217 9.58008 20.2115C10.269 19.9897 10.8469 19.6919 11.314 19.3183C12.2597 18.5477 12.7326 17.5669 12.7326 16.376C12.7326 14.2159 10.8995 13.1359 7.23322 13.1359Z" fill="#CACACA"/>
<path d="M19.2127 14.8172C19.2127 13.5329 19.4287 12.3069 19.8607 11.1393C20.3044 9.96006 20.9349 8.93258 21.7522 8.05689C23.5386 6.16539 25.8563 5.21964 28.7052 5.21964C31.5425 5.21964 33.7959 6.11285 35.4656 7.89926C37.0652 9.60395 37.865 11.8165 37.865 14.537C37.865 17.2575 37.0418 19.511 35.3955 21.2974C33.6558 23.1889 31.3498 24.1346 28.4775 24.1346C25.5119 24.1346 23.1883 23.2064 21.507 21.3499C19.9775 19.6569 19.2127 17.4793 19.2127 14.8172ZM23.4686 14.7122C23.4686 15.4477 23.5912 16.16 23.8364 16.8488C24.0816 17.5377 24.4318 18.1274 24.8872 18.6177C25.8563 19.6803 27.129 20.2115 28.7052 20.2115C30.1647 20.2115 31.3148 19.6919 32.1554 18.6528C32.9728 17.6486 33.3814 16.3409 33.3814 14.7297C33.3814 13.095 32.9611 11.7757 32.1204 10.7715C31.2214 9.69735 29.9896 9.16026 28.425 9.16026C26.8371 9.16026 25.5936 9.73238 24.6945 10.8766C23.8772 11.9275 23.4686 13.206 23.4686 14.7122Z" fill="#CACACA"/>
<path d="M40.1943 14.8172C40.1943 13.5329 40.4103 12.3069 40.8423 11.1393C41.286 9.96006 41.9165 8.93258 42.7338 8.05689C44.5202 6.16539 46.8379 5.21964 49.6868 5.21964C52.5241 5.21964 54.7775 6.11285 56.4472 7.89926C58.0468 9.60395 58.8466 11.8165 58.8466 14.537C58.8466 17.2575 58.0234 19.511 56.3771 21.2974C54.6374 23.1889 52.3314 24.1346 49.4591 24.1346C46.4935 24.1346 44.1699 23.2064 42.4886 21.3499C40.9591 19.6569 40.1943 17.4793 40.1943 14.8172ZM44.4502 14.7122C44.4502 15.4477 44.5728 16.16 44.818 16.8488C45.0632 17.5377 45.4134 18.1274 45.8688 18.6177C46.8379 19.6803 48.1106 20.2115 49.6868 20.2115C51.1463 20.2115 52.2964 19.6919 53.137 18.6528C53.9544 17.6486 54.363 16.3409 54.363 14.7297C54.363 13.095 53.9427 11.7757 53.102 10.7715C52.203 9.69735 50.9712 9.16026 49.4066 9.16026C47.8187 9.16026 46.5752 9.73238 45.6761 10.8766C44.8588 11.9275 44.4502 13.206 44.4502 14.7122Z" fill="#CACACA"/>
<path d="M68.6718 24.1346C65.3792 24.1346 62.8981 23.5333 61.2284 22.3307C61.2518 21.9804 61.2868 21.5834 61.3335 21.1397L61.4911 19.8787C61.5846 19.0498 61.6429 18.536 61.6663 18.3375C61.6896 18.1274 61.7072 18.0164 61.7188 18.0048C61.7305 17.9814 61.8239 18.0748 61.9991 18.285C62.1742 18.4835 62.507 18.7287 62.9973 19.0206C63.4877 19.3125 64.054 19.5693 64.6962 19.7912C66.0856 20.2699 67.5334 20.5092 69.0396 20.5092C71.0596 20.5092 72.0695 19.8379 72.0695 18.4951C72.0695 18.0631 71.8769 17.7421 71.4916 17.5319C70.8027 17.1816 69.7869 16.9189 68.4442 16.7438C67.1131 16.5569 66.0214 16.2884 65.1691 15.9381C64.3167 15.5878 63.622 15.1675 63.0849 14.6771C62.0925 13.7547 61.5962 12.5463 61.5962 11.0518C61.5962 9.23032 62.2968 7.80002 63.6979 6.76086C65.0873 5.73338 67.008 5.21964 69.46 5.21964C71.8885 5.21964 73.961 5.90852 75.6774 7.28628C75.5956 7.58985 75.5081 7.88175 75.4147 8.16197C75.1461 8.93258 74.9476 9.48719 74.8192 9.82579L74.4164 10.8591C74.393 10.9525 74.3755 10.9992 74.3638 10.9992C74.3405 10.9992 74.2471 10.8766 74.0836 10.6314C73.348 9.77909 72.2038 9.21864 70.6509 8.9501C70.1722 8.85669 69.6818 8.80999 69.1797 8.80999C67.0547 8.80999 65.9922 9.45216 65.9922 10.7365C65.9922 11.1802 66.2141 11.5188 66.6577 11.7523C67.4867 12.196 68.6193 12.5229 70.0554 12.7331C71.5032 12.9433 72.6008 13.2293 73.348 13.5913C74.0953 13.9415 74.6966 14.3677 75.152 14.8698C75.9926 15.7805 76.413 16.989 76.413 18.4951C76.413 20.1415 75.7533 21.4783 74.4339 22.5058C73.0561 23.5917 71.1354 24.1346 68.6718 24.1346Z" fill="#CACACA"/>
<path d="M86.6411 24.1346C83.3484 24.1346 80.8673 23.5333 79.1977 22.3307C79.221 21.9804 79.256 21.5834 79.3027 21.1397L79.4604 19.8787C79.5538 19.0498 79.6122 18.536 79.6355 18.3375C79.6589 18.1274 79.6764 18.0164 79.688 18.0048C79.6997 17.9814 79.7931 18.0748 79.9683 18.285C80.1434 18.4835 80.4762 18.7287 80.9666 19.0206C81.4569 19.3125 82.0232 19.5693 82.6654 19.7912C84.0548 20.2699 85.5026 20.5092 87.0088 20.5092C89.0288 20.5092 90.0387 19.8379 90.0387 18.4951C90.0387 18.0631 89.8461 17.7421 89.4608 17.5319C88.7719 17.1816 87.7561 16.9189 86.4134 16.7438C85.0823 16.5569 83.9906 16.2884 83.1383 15.9381C82.2859 15.5878 81.5912 15.1675 81.0541 14.6771C80.0617 13.7547 79.5655 12.5463 79.5655 11.0518C79.5655 9.23032 80.266 7.80002 81.6671 6.76086C83.0565 5.73338 84.9772 5.21964 87.4292 5.21964C89.8578 5.21964 91.9302 5.90852 93.6466 7.28628C93.5649 7.58985 93.4773 7.88175 93.3839 8.16197C93.1153 8.93258 92.9168 9.48719 92.7884 9.82579L92.3856 10.8591C92.3622 10.9525 92.3447 10.9992 92.3331 10.9992C92.3097 10.9992 92.2163 10.8766 92.0528 10.6314C91.3172 9.77909 90.173 9.21864 88.6201 8.9501C88.1414 8.85669 87.651 8.80999 87.1489 8.80999C85.0239 8.80999 83.9614 9.45216 83.9614 10.7365C83.9614 11.1802 84.1833 11.5188 84.627 11.7523C85.4559 12.196 86.5885 12.5229 88.0246 12.7331C89.4725 12.9433 90.57 13.2293 91.3172 13.5913C92.0645 13.9415 92.6658 14.3677 93.1212 14.8698C93.9618 15.7805 94.3822 16.989 94.3822 18.4951C94.3822 20.1415 93.7225 21.4783 92.4031 22.5058C91.0254 23.5917 89.1047 24.1346 86.6411 24.1346Z" fill="#CACACA"/>
<path d="M106.572 20.0189C108.078 20.0189 109.111 19.6277 109.672 18.8454H109.812L109.864 22.9086C109.292 23.4808 108.23 23.8602 106.677 24.047C106.257 24.1054 105.731 24.1346 105.101 24.1346C104.482 24.1346 103.805 24.0179 103.069 23.7843C102.345 23.5508 101.726 23.1713 101.213 22.6459C100.15 21.5601 99.6188 19.8612 99.6188 17.5494V9.59811H96.9742C96.9625 9.25951 96.9567 8.91507 96.9567 8.56479V5.86766C96.9567 5.66917 96.9625 5.56992 96.9742 5.56992H99.6188V0.578471H103.91V5.56992H108.726V9.59811H103.91V16.7438C103.91 18.5769 104.418 19.6219 105.433 19.8787C105.76 19.9722 106.14 20.0189 106.572 20.0189Z" fill="#CACACA"/>
</g>
<defs>
<clipPath id="clip0_48_2354">
<rect width="109.864" height="24.1691" fill="white" transform="translate(0 0.140625)"/>
</clipPath>
</defs>
</svg>
